<svg xmlns="http://www.w3.org/2000/svg" id="Layer_1" x="0" y="0" enable-background="new 0 0 3500 3000" version="1.1" viewBox="0 0 3500 3000" xml:space="preserve"><path fill="#231f20" d="M3120.3447,853.9761H740.8262V733.7124c0-14.4048,12.6992-26.124,28.3076-26.124h2322.9023
		c15.6094,0,28.3086,11.7192,28.3086,26.124V853.9761z M750.8262,843.9761h2359.5186V733.7124
		c0-8.8906-8.2129-16.124-18.3086-16.124H769.1338c-10.0947,0-18.3076,7.2334-18.3076,16.124V843.9761z"/><path fill="#231f20" d="M3092.0361,2250.0879H769.1338c-15.6084,0-28.3076-11.7192-28.3076-26.124v-119.7354h2379.5186v119.7354
		C3120.3447,2238.3687,3107.6455,2250.0879,3092.0361,2250.0879z M750.8262,2114.2285v109.7354
		c0,8.8911,8.2129,16.124,18.3076,16.124h2322.9023c10.0957,0,18.3086-7.2329,18.3086-16.124v-109.7354H750.8262z"/><rect width="10" height="1368.557" x="2562.869" y="848.972" fill="#231f20"/><rect width="1584.298" height="585.495" x="877.162" y="963.042" fill="#ff5163"/><path fill="#231f20" d="M2466.46,1553.5371H872.1621V958.0425H2466.46V1553.5371z M882.1621,1543.5371H2456.46V968.0425H882.1621
		V1543.5371z"/><path fill="#231f20" d="M3011.3682,1458.1172h-20v-10h20V1458.1172z M2981.3682,1458.1172h-20v-10h20V1458.1172z M2951.3682,1458.1172
		h-20v-10h20V1458.1172z M2921.3682,1458.1172h-20v-10h20V1458.1172z M2891.3682,1458.1172h-20v-10h20V1458.1172z
		 M2861.3682,1458.1172h-20v-10h20V1458.1172z M2831.3682,1458.1172h-20v-10h20V1458.1172z M2801.3682,1458.1172h-20v-10h20
		V1458.1172z M2771.3682,1458.1172h-20v-10h20V1458.1172z M2741.3682,1458.1172h-20v-10h20V1458.1172z M2711.3682,1458.1172h-20v-10
		h20V1458.1172z M2681.3682,1458.1172h-23.0205v-6.9795h5v-3.0205h18.0205V1458.1172z M3016.3682,1446.9268h-10v-20h10V1446.9268z
		 M2668.3477,1441.1377h-10v-20h10V1441.1377z M3016.3682,1416.9268h-10v-20h10V1416.9268z M2668.3477,1411.1377h-10v-20h10
		V1411.1377z M3016.3682,1386.9268h-10v-20h10V1386.9268z M2668.3477,1381.1377h-10v-20h10V1381.1377z M3016.3682,1356.9268h-10v-20
		h10V1356.9268z M2668.3477,1351.1377h-10v-20h10V1351.1377z M3016.3682,1326.9268h-10v-20h10V1326.9268z M2668.3477,1321.1377h-10
		v-20h10V1321.1377z M3016.3682,1296.9268h-10v-20h10V1296.9268z M2668.3477,1291.1377h-10v-20h10V1291.1377z M3016.3682,1266.9268
		h-10v-20h10V1266.9268z M2668.3477,1261.1377h-10v-20h10V1261.1377z M3016.3682,1236.9268h-10v-20h10V1236.9268z
		 M2668.3477,1231.1377h-10v-20h10V1231.1377z M3016.3682,1206.9268h-10v-20h10V1206.9268z M2668.3477,1201.1377h-10v-20h10
		V1201.1377z M3016.3682,1176.9268h-10v-20h10V1176.9268z M2668.3477,1171.1377h-10v-20h10V1171.1377z M3016.3682,1146.9268h-10v-20
		h10V1146.9268z M2668.3477,1141.1377h-10v-20h10V1141.1377z M3016.3682,1116.9268h-10v-20h10V1116.9268z M2668.3477,1111.1377h-10
		v-20h10V1111.1377z M3016.3682,1086.9268h-10v-20h10V1086.9268z M2668.3477,1081.1377h-10v-20h10V1081.1377z M3016.3682,1056.9268
		h-10v-20h10V1056.9268z M2668.3477,1051.1377h-10v-20h10V1051.1377z M3016.3682,1026.9268h-10v-20h10V1026.9268z
		 M2668.3477,1021.1377h-10v-20h10V1021.1377z M3016.3682,996.9268h-10v-20h10V996.9268z M2668.3477,991.1377h-10v-20h10V991.1377z
		 M3011.3682,968.0425h-16.1162v-10h21.1162v8.8843h-5V968.0425z M2985.252,968.0425h-20v-10h20V968.0425z M2955.252,968.0425h-20
		v-10h20V968.0425z M2925.252,968.0425h-20v-10h20V968.0425z M2895.252,968.0425h-20v-10h20V968.0425z M2865.252,968.0425h-20v-10
		h20V968.0425z M2835.252,968.0425h-20v-10h20V968.0425z M2805.252,968.0425h-20v-10h20V968.0425z M2775.252,968.0425h-20v-10h20
		V968.0425z M2745.252,968.0425h-20v-10h20V968.0425z M2715.252,968.0425h-20v-10h20V968.0425z M2685.252,968.0425h-20v-10h20
		V968.0425z"/><path fill="#231f20" d="M3016.3682,1817.3721h-358.0205v-303.8271h358.0205V1817.3721z M2668.3477,1807.3721h338.0205v-283.8271
		h-338.0205V1807.3721z"/><path fill="#ff5163" d="M3011.3701,1708.1699V1812.37h-348.0205v-84.27c0,0,50.6504-100.62,112.8408-58.7799
		c62.1992,41.8398,111.9697,53.5699,161.7295,24.2999C2987.6904,1664.34,3011.3701,1708.1699,3011.3701,1708.1699z"/><path fill="#231f20" d="M3016.3701,1817.3701h-358.0205v-90.4575l0.5342-1.0605c1.2061-2.3955,30.0186-58.7974,72.2305-69.8511
		c16.3555-4.2832,32.458-1.1958,47.8672,9.1709c64.5605,43.4287,111.3369,50.6479,156.4033,24.1387
		c17.167-10.0996,33.4004-13.1226,48.2432-8.9858c21.3945,5.9634,31.7129,24.6748,32.1416,25.4688l0.6006,1.1123V1817.3701z
		 M2668.3496,1807.3701h338.0205v-97.8154c-2.2607-3.561-10.8115-15.5693-25.5342-19.627
		c-12.1064-3.3345-25.6885-0.6416-40.3809,8.002c-25.4521,14.9717-51.4814,19.9209-79.5752,15.1357
		c-26.1445-4.4536-53.9414-17.0356-87.4805-39.5962c-12.9219-8.6948-26.2979-11.3174-39.752-7.7944
		c-35,9.165-61.2754,56.1133-65.2979,63.6543V1807.3701z"/><path fill="#231f20" d="M3016.3682,2008.3989h-25v-10h15v-4.6455h10V2008.3989z M2981.3682,2008.3989h-20v-10h20V2008.3989z
		 M2951.3682,2008.3989h-20v-10h20V2008.3989z M2921.3682,2008.3989h-20v-10h20V2008.3989z M2891.3682,2008.3989h-20v-10h20
		V2008.3989z M2861.3682,2008.3989h-20v-10h20V2008.3989z M2831.3682,2008.3989h-20v-10h20V2008.3989z M2801.3682,2008.3989h-20v-10
		h20V2008.3989z M2771.3682,2008.3989h-20v-10h20V2008.3989z M2741.3682,2008.3989h-20v-10h20V2008.3989z M2711.3682,2008.3989h-20
		v-10h20V2008.3989z M2681.3682,2008.3989h-23.0205v-6.9795h5v-3.0205h18.0205V2008.3989z M2668.3477,1991.4194h-10v-20h10
		V1991.4194z M3016.3682,1983.7534h-10v-20h10V1983.7534z M2668.3477,1961.4194h-10v-20h10V1961.4194z M3016.3682,1953.7534h-10v-20
		h10V1953.7534z M2668.3477,1931.4194h-10v-20h10V1931.4194z M3016.3682,1923.7534h-10v-20h10V1923.7534z M2668.3477,1901.4194h-10
		v-24.8228h5.1768v5h4.8232V1901.4194z M3016.3682,1893.7534h-10v-7.1567h-2.8438v-10h12.8438V1893.7534z M2993.5244,1886.5967h-20
		v-10h20V1886.5967z M2963.5244,1886.5967h-20v-10h20V1886.5967z M2933.5244,1886.5967h-20v-10h20V1886.5967z M2903.5244,1886.5967
		h-20v-10h20V1886.5967z M2873.5244,1886.5967h-20v-10h20V1886.5967z M2843.5244,1886.5967h-20v-10h20V1886.5967z
		 M2813.5244,1886.5967h-20v-10h20V1886.5967z M2783.5244,1886.5967h-20v-10h20V1886.5967z M2753.5244,1886.5967h-20v-10h20
		V1886.5967z M2723.5244,1886.5967h-20v-10h20V1886.5967z M2693.5244,1886.5967h-20v-10h20V1886.5967z"/><path fill="#231f20" d="M2204.71,1676.647h-992.0537v-62.8818H2204.71V1676.647z M1222.6562,1666.647H2194.71v-42.8818h-972.0537
		V1666.647z"/><path fill="#231f20" d="M2204.71,1785.978H1110.4814v-62.8818H2204.71V1785.978z M1120.4814,1775.978H2194.71v-42.8818H1120.4814
		V1775.978z"/><path fill="#231f20" d="M2204.71,1895.3091H1110.4814v-62.8818H2204.71V1895.3091z M1120.4814,1885.3091H2194.71v-42.8818H1120.4814
		V1885.3091z"/><path fill="#231f20" d="M2204.71,2004.6401H872.1621v-62.8818H2204.71V2004.6401z M882.1621,1994.6401H2194.71v-42.8818H882.1621
		V1994.6401z"/><path fill="#231f20" d="M1040.4482,1895.3091h-93.7744V1676.647h-80.4268v-62.8818h254.2344v62.8818h-80.0332V1895.3091z
		 M956.6738,1885.3091h73.7744V1666.647h80.0332v-42.8818H876.2471v42.8818h80.4268V1885.3091z"/><ellipse cx="862.228" cy="782.328" fill="#ff5163" rx="28.774" ry="28.828"/><ellipse cx="980.995" cy="782.328" fill="#ff5163" rx="28.774" ry="28.828"/><ellipse cx="1099.762" cy="782.328" fill="#ff5163" rx="28.774" ry="28.828"/><path fill="#231f20" d="M862.2285,816.1558c-18.623,0-33.7744-15.1748-33.7744-33.8276s15.1514-33.8276,33.7744-33.8276
		s33.7734,15.1748,33.7734,33.8276S880.8516,816.1558,862.2285,816.1558z M862.2285,758.5005
		c-13.1094,0-23.7744,10.689-23.7744,23.8276s10.665,23.8276,23.7744,23.8276c13.1084,0,23.7734-10.689,23.7734-23.8276
		S875.3369,758.5005,862.2285,758.5005z"/><path fill="#353434" d="M3115.3447,2109.2283v114.7356c0,11.6711-10.4421,21.1243-23.3081,21.1243H769.1338
		c-12.8777,0-23.308-9.4531-23.308-21.1243v-114.7356H3115.3447z"/><path fill="#231f20" d="M980.9951,816.1558c-18.623,0-33.7744-15.1748-33.7744-33.8276s15.1514-33.8276,33.7744-33.8276
		s33.7734,15.1748,33.7734,33.8276S999.6182,816.1558,980.9951,816.1558z M980.9951,758.5005
		c-13.1094,0-23.7744,10.689-23.7744,23.8276s10.665,23.8276,23.7744,23.8276c13.1084,0,23.7734-10.689,23.7734-23.8276
		S994.1035,758.5005,980.9951,758.5005z"/><path fill="#231f20" d="M1099.7617,816.1558c-18.623,0-33.7744-15.1748-33.7744-33.8276s15.1514-33.8276,33.7744-33.8276
		s33.7734,15.1748,33.7734,33.8276S1118.3848,816.1558,1099.7617,816.1558z M1099.7617,758.5005
		c-13.1094,0-23.7744,10.689-23.7744,23.8276s10.665,23.8276,23.7744,23.8276c13.1084,0,23.7734-10.689,23.7734-23.8276
		S1112.8701,758.5005,1099.7617,758.5005z"/><rect width="3004.049" height="18" x="257.038" y="2693.669" fill="#231f20"/><path fill="#231f20" d="M3095.3418,2250.0908H765.8262c-13.7852,0-25-11.2148-25-25V732.584c0-13.7852,11.2148-25,25-25h2329.5156
		c13.7852,0,25,11.2148,25,25v1492.5068C3120.3418,2238.876,3109.127,2250.0908,3095.3418,2250.0908z M765.8262,717.584
		c-8.2705,0-15,6.729-15,15v1492.5068c0,8.271,6.7295,15,15,15h2329.5156c8.2705,0,15-6.729,15-15V732.584c0-8.271-6.7295-15-15-15
		H765.8262z"/><rect width="41.504" height="37.615" x="856.41" y="944.235" fill="#fff"/><rect width="41.504" height="37.615" x="2440.708" y="944.235" fill="#fff"/><rect width="41.504" height="37.615" x="856.41" y="1529.729" fill="#fff"/><rect width="41.504" height="37.615" x="2440.708" y="1529.729" fill="#fff"/><rect width="41.504" height="37.615" x="1650.599" y="944.235" fill="#fff"/><rect width="41.504" height="37.615" x="1650.599" y="1529.729" fill="#fff"/><path fill="#231f20" d="M902.9141,986.8496h-51.5039v-47.6147h51.5039V986.8496z M861.4102,976.8496h31.5039v-27.6147h-31.5039
		V976.8496z"/><path fill="#231f20" d="M2487.2119,986.8496h-51.5039v-47.6147h51.5039V986.8496z M2445.708,976.8496h31.5039v-27.6147h-31.5039
		V976.8496z"/><path fill="#231f20" d="M902.9141,1572.3442h-51.5039v-47.6147h51.5039V1572.3442z M861.4102,1562.3442h31.5039v-27.6147h-31.5039
		V1562.3442z"/><path fill="#231f20" d="M2487.2119,1572.3442h-51.5039v-47.6147h51.5039V1572.3442z M2445.708,1562.3442h31.5039v-27.6147h-31.5039
		V1562.3442z"/><path fill="#231f20" d="M1697.1025,986.8496h-51.5029v-47.6147h51.5029V986.8496z M1655.5996,976.8496h31.5029v-27.6147h-31.5029
		V976.8496z"/><path fill="#231f20" d="M1697.1025,1572.3442h-51.5029v-47.6147h51.5029V1572.3442z M1655.5996,1562.3442h31.5029v-27.6147h-31.5029
		V1562.3442z"/><path fill="#231f20" d="M3095.3418,2250.0908H765.8262c-13.7852,0-25-11.2148-25-25V732.584c0-13.7852,11.2148-25,25-25h2329.5156
		c13.7852,0,25,11.2148,25,25v1492.5068C3120.3418,2238.876,3109.127,2250.0908,3095.3418,2250.0908z M765.8262,717.584
		c-8.2705,0-15,6.729-15,15v1492.5068c0,8.271,6.7295,15,15,15h2329.5156c8.2705,0,15-6.729,15-15V732.584c0-8.271-6.7295-15-15-15
		H765.8262z"/><path fill="#231f20" d="M2881.8633,1686.0811c-16.6484,0-30.1924-13.3281-30.1924-29.7109s13.5439-29.7109,30.1924-29.7109
		s30.1934,13.3281,30.1934,29.7109S2898.5117,1686.0811,2881.8633,1686.0811z M2881.8633,1636.6592
		c-11.1338,0-20.1924,8.8423-20.1924,19.7109s9.0586,19.7109,20.1924,19.7109c11.1348,0,20.1934-8.8423,20.1934-19.7109
		S2892.998,1636.6592,2881.8633,1636.6592z"/><path fill="#353434" d="M1685.0869,581.6957l132.3125,285.9961l316.1223-155.107l420.261,0.0035l61.4243,176.9849l367.5947-127.8775
			l-110.5137-156.004c-54.4761-76.9001-142.8638-122.6047-237.1045-122.6047h-603.9552c-44.4297,0-88.2678,10.1886-128.1436,29.7825
			L1685.0869,581.6957z"/><path fill="#231f20" d="M2612.124,895.9399l-61.8994-178.3516l-415.543-0.0034l-319.6719,156.8491l-136.8467-295.7954
			l223.0586-70.4238c40.2471-19.7114,85.1924-30.1279,130.0068-30.1279h603.9551c95.7012,0,185.8633,46.6221,241.1846,124.7148
			l114.3584,161.4312L2612.124,895.9399z M2132.3613,707.585l424.9785,0.0034l60.9502,175.6182l356.5869-124.0479L2868.208,608.582
			c-53.4492-75.4502-140.5615-120.4951-233.0244-120.4951h-603.9551c-43.4199,0-86.9688,10.1216-125.9385,29.27l-0.3389,0.167
			l-212.9404,67.2295l127.7783,276.1963L2132.3613,707.585z"/><path fill="#fff" d="M2171.6379,548.5683c0,0,82.8806,51.2183,71.2708,94.1299c0,0,123.2498-9.2082,96.0244-117.3909
			c0,0-42.4832-24.6459-106.6936-57.1423C2232.2395,468.1651,2185.8989,481.7579,2171.6379,548.5683z"/><path fill="#231f20" d="M2236.2373,648.2104l1.8447-6.8179c5.3428-19.7471-13.2451-42.5015-29.7793-58.1133
			c-18.6777-17.6353-39.0908-30.332-39.2939-30.458l-2.9951-1.8525l0.7344-3.4443c14.7139-68.9331,62.0752-83.5679,64.084-84.1572
			l1.8994-0.5571l1.7656,0.8936c63.6025,32.189,106.5186,57.0317,106.9443,57.2793l1.8252,1.0586l0.5146,2.0459
			c7.9307,31.5107,4.291,58.1084-10.8164,79.0547c-28.5195,39.5425-87.2002,44.3564-89.6846,44.5425L2236.2373,648.2104z
			 M2177.2861,546.2437c14.5156,9.481,74.3623,51.0708,71.6367,90.6655c15.5137-2.376,55.3906-11.0957,75.959-39.6543
			c12.958-17.9922,16.2178-41.0913,9.7012-68.6807c-8.7266-4.9966-47.7568-27.124-102.6855-54.9775
			c-3.583,1.4116-12.2217,5.3789-21.7275,13.8403C2199.0947,497.2964,2184.5918,515.418,2177.2861,546.2437z"/><path fill="#fff" d="M1997.2147,498.655c0,0,66.6989,95.9713,85.7006,80.7013c19.002-15.27,19.002-15.27,19.002-15.27
			s61.2878,92.2318,114.8469,32.0916c53.5593-60.1401,10.406-158.7426,10.406-158.7426S2017.0394,316.5938,1997.2147,498.655z"/><path fill="#231f20" d="M2176.9111,621.541c-1.2217,0-2.4482-0.0435-3.6846-0.1309c-34.0127-2.4033-62.9248-37.4429-72.3125-50.104
			l-14.8672,11.9478c-1.9619,1.5767-5.3623,3.3042-10.4092,2.5757c-11.5586-1.6675-28.5234-16.1211-51.8643-44.187
			c-16.6748-20.0498-30.5264-39.936-30.6641-40.1343l-1.0674-1.5356l0.2021-1.8589c5.1104-46.9292,23.1699-78.5859,53.6777-94.0913
			c29.5322-15.0107,69.5312-14.6213,118.8857,1.1584c36.3008,11.606,63.7061,27.2595,64.8545,27.9202l1.4277,0.8213l0.6602,1.5083
			c0.4531,1.0337,11.125,25.6841,15.2617,58.1924c5.5439,43.5654-3.624,80.1782-26.5127,105.8799
			C2207.4639,614.1396,2192.8145,621.54,2176.9111,621.541z M2103.0518,556.7603l3.0293,4.5591
			c0.3154,0.4736,32.0938,47.606,67.8701,50.1167c14.0771,0.9893,27.2178-5.2651,39.0791-18.5835
			c47.3115-53.1245,15.207-139.4043,10.1855-151.8945c-13.1729-7.2114-111.8477-58.9971-172.7773-28.0137
			c-26.9062,13.6821-43.0645,42.0723-48.043,84.3965c20.917,29.8271,58.7168,76.2905,74.6699,78.5913
			c1.8145,0.2607,2.4688-0.2725,2.7178-0.4731L2103.0518,556.7603z"/><path fill="#ff5163" d="M1861.1063,482.3053c0,0-23.3013,50.9706,68.965,50.3159c92.2661-0.6547,83.1102-42.9292,148.6018-26.625
			c65.4917,16.3042,0.1042-29.0358,17.4861-62.3054s52.1926-1.9607,48.5732,31.2787
			c-3.6196,33.2394,100.5039,31.7203,107.2979-30.6716s-36.8477-172.6309-172.3381-139.9918s-83.9884,80.9864-135.9994,122.7826
			C1891.6819,468.885,1882.0035,444.8321,1861.1063,482.3053z"/><path fill="#231f20" d="M1928.3301,537.6274c-36.0361,0-59.4248-7.9136-69.5361-23.5317
			c-10.2676-15.8589-2.5674-33.1416-2.2344-33.8696l0.1797-0.356c11.9727-21.4688,21.3652-24.6069,34.3643-28.9502
			c11.4014-3.8096,25.5918-8.5503,49.457-27.7285c17.3281-13.925,22.3408-28.3865,27.6484-43.697
			c9.9424-28.6853,20.2246-58.3474,110.3125-80.0491c68.3564-16.468,109.9023,3.9949,132.7158,24.061
			c37.1787,32.7031,49.7744,84.5034,45.7637,121.3325c-4.3809,40.231-45.2354,56.6704-76.2041,56.6719
			c-3.0029,0.0005-5.9062-0.1538-8.6807-0.4561c-21.165-2.3047-33.8643-12.7559-32.3545-26.626
			c1.9932-18.3037-9.2754-35.856-20.6826-39.3213c-9.123-2.77-15.0908,4.3965-18.4883,10.8989
			c-6.3428,12.1396,0.8584,27.2612,6.6445,39.4116c5.001,10.5,8.9502,18.7935,4.0674,24.7681
			c-4.4404,5.4321-13.9258,5.6182-33.8379,0.6621c-31.6133-7.8706-44.3076-1.5923-61.877,7.0977
			c-17.4258,8.6191-39.1123,19.3462-85.4814,19.6753C1929.5117,537.625,1928.918,537.6274,1928.3301,537.6274z M1865.5986,484.5151
			c-0.6113,1.4917-5.252,13.6797,1.6455,24.2319c8.2246,12.5801,29.9033,19.1284,62.792,18.874
			c44.0674-0.3125,63.752-10.0488,81.1182-18.6392c18.0029-8.9043,33.5488-16.5942,68.7266-7.8379
			c18.5967,4.6299,22.8525,3.1636,23.6201,2.7295c0.4238-2.1504-3.0059-9.3521-5.2939-14.1558
			c-6.3867-13.4111-15.1338-31.7783-6.4795-48.3423c10.1855-19.4966,24.5547-17.5693,30.2588-15.8364
			c17.3975,5.2856,30.0908,28.1699,27.7168,49.9717c-1.0361,9.5156,12.0088,14.3521,23.4951,15.6025
			c27.3896,2.9839,69.7939-10.0078,73.8613-47.3569c3.6104-33.1501-8.127-82.5708-42.4277-112.7415
			c-30.1621-26.532-72.959-34.0867-123.7686-21.8479c-84.7725,20.4214-93.7266,46.2534-103.2061,73.6025
			c-5.5371,15.9731-11.2627,32.49-30.833,48.2168c-25.2607,20.3003-41.0342,25.5703-52.5518,29.4185
			C1882.2549,464.4199,1875.6133,466.6382,1865.5986,484.5151z"/><path fill="#fff" d="M3111.7354,1151.5474l-162.2744-378.2534l-286.1133,99.5321l85.8828,219.0037l-188.1807,35.0802
			c0,0-44.6299-11.95-77.5693,9.53l-22.0205,10.52v75.38l-148.5898,71.25c-5.5205,7.9601-6.6699,18.59-2.0703,27.89
			c6.5498,13.26,22.3701,18.89,35.7705,12.95c-11.9707,7.3501-16.5703,22.75-10.2207,35.5801
			c4.79,9.6899,14.5303,15.3101,24.6602,15.3101c3.7305,0,7.5098-0.76,11.1104-2.3601
			c-11.9697,7.3501-16.5703,22.75-10.2197,35.5901c4.79,9.6899,14.5195,15.2999,24.6494,15.2999c3.7305,0,7.5098-0.76,11.1201-2.36
			c-11.9697,7.36-16.5703,22.75-10.2197,35.59c4.79,9.6901,14.54,15.3101,24.6699,15.3101c4.0898,0,8.2402-0.91,12.1602-2.85
			l36.3496-17.98l133.2197-78.2001l390.709-26.0931c0,0,0-0.0002,0.001-0.0002l1.2627-0.0842
			C3087.4727,1350.3938,3151.9014,1245.1722,3111.7354,1151.5474z"/><path fill="#231f20" d="M2412.1201,1487.3901c-12.4648,0-23.6348-6.9336-29.1523-18.0942
			c-4.9854-10.0791-4.3496-21.4629,0.874-30.5557c-11.3486-0.9253-21.3125-7.6348-26.4238-17.9746
			c-4.9873-10.0835-4.3535-21.4663,0.8691-30.5566c-11.3467-0.9297-21.3076-7.6416-26.4199-17.9834
			c-4.9834-10.0693-4.3545-21.439,0.8555-30.5234c-10.9873-0.9116-21.1738-7.415-26.4053-18.0078
			c-5.2402-10.5952-4.3047-23.2236,2.4443-32.9541l0.7539-1.0869l146.9443-70.4609v-75.3853l24.5723-11.7388
			c31.793-20.5249,72.6982-12.0645,80.1738-10.2734l181.1611-33.772l-85.5723-218.2109l295.4238-102.7715l164.1113,382.5356
			c10.0723,23.4761,14.0938,48.061,11.9531,73.0713c-2.0098,23.4741-9.6367,46.605-22.0586,66.8916
			c-12.4219,20.2871-29.5566,37.5967-49.5518,50.0581c-21.3027,13.2769-45.0283,20.8721-70.5176,22.5742l-1.2637,0.084
			l-389.5293,26.0146l-132.3555,77.6924l-0.1602,0.0796l-36.3496,17.98
			C2421.9814,1486.2568,2417.1436,1487.3901,2412.1201,1487.3901z M2395.6445,1426.9189l4.6445,8.8306
			c-9.9482,6.1167-13.541,18.6328-8.3574,29.1138c3.8203,7.7271,11.5557,12.5269,20.1885,12.5269
			c3.4717,0,6.8164-0.7842,9.9424-2.3315l36.1904-17.9009l134.085-78.708l393.1523-26.2559
			c46.8096-3.1265,87.707-27.8667,112.2061-67.8765c24.498-40.0103,27.9404-87.6841,9.4443-130.7988l-160.4375-373.9712
			l-276.8027,96.293l86.1934,219.7959l-195.2422,36.397l-1.0947-0.293c-0.4238-0.1128-42.9219-11.0835-73.5449,8.8877
			l-0.5762,0.3237l-19.1758,9.1611v75.3745l-150.1709,72.0083c-4.041,6.5815-4.4492,14.8081-1.0078,21.7681
			c5.3564,10.8418,18.208,15.4961,29.2627,10.5952l4.6426,8.8315c-9.9502,6.1099-13.542,18.6211-8.3555,29.1016
			c3.8203,7.7285,11.5518,12.5283,20.1787,12.5283c3.1436,0,6.1992-0.6494,9.0801-1.9297l4.6465,8.8301
			c-9.9492,6.1099-13.541,18.6255-8.3545,29.1123c3.8174,7.7212,11.5449,12.5171,20.168,12.5171
			C2389.6924,1428.8501,2392.752,1428.2002,2395.6445,1426.9189z"/><polygon fill="#fff" points="2718.222 1375.052 2677.544 1105.347 2726.819 1096.228 2772.164 1371.449"/><path fill="#231f20" d="M2713.9639,1380.3477l-42.084-279.0376l59.043-10.9258l47.0703,285.6865L2713.9639,1380.3477z
			 M2683.21,1109.3833l39.2695,260.3735l43.8555-2.9292l-43.6211-264.7549L2683.21,1109.3833z"/><ellipse cx="2724.448" cy="1239.241" fill="#ff5163" rx="55.709" ry="53.453" transform="rotate(-64.273 2724.39 1239.198)"/><path fill="#231f20" d="M2722.6143,1299.5283c-8.2812,0-16.6357-1.7974-24.5186-5.5957
			c-29.0361-13.9907-40.8369-49.9077-26.3057-80.0649c14.5303-30.1562,49.9736-43.3091,79.0107-29.3184l0,0
			c14.1016,6.7944,24.5957,18.8896,29.5498,34.0581c4.9307,15.0942,3.7783,31.4331-3.2441,46.0063
			C2766.5215,1286.5835,2744.8359,1299.5283,2722.6143,1299.5283z M2726.2617,1188.9517c-18.4961,0-36.5986,10.8584-45.4639,29.2568
			c-12.1367,25.1899-2.4307,55.1182,21.6377,66.7153c24.0723,11.5986,53.5254,0.5371,65.6631-24.6509
			c5.8965-12.2373,6.8711-25.9316,2.7461-38.5605c-4.1006-12.5547-12.7607-22.5532-24.3838-28.1543l0,0
			C2739.9717,1190.4316,2733.0889,1188.9517,2726.2617,1188.9517z"/><polygon fill="#231f20" points="2690.314 1247.78 2689.291 1237.833 2720.616 1234.609 2728.793 1207.304 2738.373 1210.173 2728.28 1243.873"/><rect width="83.194" height="9.999" x="2342.188" y="1310.845" fill="#231f20" transform="rotate(-26.53 2383.886 1315.784)"/><rect width="75.632" height="10" x="2368.266" y="1361.328" fill="#231f20" transform="rotate(-26.096 2405.808 1366.215)"/><rect width="65.732" height="10" x="2394.078" y="1411.549" fill="#231f20" transform="rotate(-27.044 2426.7 1416.443)"/><rect width="191.894" height="10" x="2748.081" y="1072.024" fill="#231f20" transform="rotate(-8.885 2843.873 1077.465)"/><path fill="#fff" d="M1456.5652,963.0424l347.955-123.1894l-107.8484-233.1166l-535.9326,356.306l-51.8267,78.6268
			c-9.9941,15.1621,0.8804,35.3544,19.04,35.3544l0,0c6.8781,0,13.3888-3.1045,17.7186-8.4486l52.9871-65.4003
			c45.3584,11.4977,86.1562,5.8284,116.2549-40.1323H1456.5652z"/><path fill="#231f20" d="M1127.9521,1082.0234c-10.3984,0-19.5488-5.4658-24.4795-14.6206s-4.458-19.8037,1.2646-28.4854
			l52.3867-79.4756l541.6367-360.0986l112.6025,243.3916l-353.9385,125.3076h-139.8379
			c-14.7188,21.6201-32.3008,35.1782-53.6787,41.4131c-18.2598,5.3242-39.0137,5.1094-63.3613-0.6689l-50.9912,62.9355
			C1144.252,1078.269,1136.377,1082.0234,1127.9521,1082.0234z M1164.3545,966.6431l-51.2676,77.7778
			c-3.6641,5.5591-3.9668,12.3779-0.8105,18.2402c3.1572,5.8623,9.0176,9.3623,15.6758,9.3623
			c5.3945,0,10.4375-2.4043,13.834-6.5962l55.001-67.8848l3.0996,0.7856c50.2842,12.7451,85.5068,0.6641,110.8438-38.0249
			l1.4805-2.2607h143.4961l341.9717-121.0713L1694.583,614.1294L1164.3545,966.6431z"/><path fill="#353434" d="M774.1304,1874.5652l28.0982-0.3958c53.3531-0.7515,104.9996,18.792,144.4896,54.676l101.3253,92.0729
			l197.4351-397.0612l328.9895,139.5776l-277.7894,554.7871c-43.8021,87.4795-152.7493,119.2397-236.6987,69.0022l-43.2407-25.8762
			l72,341.459l-701.2174-0.1372l154.9565-825.8083L774.1304,1874.5652z"/><path fill="#231f20" d="M1094.9033,2707.8086l-713.4072-0.1406l1.1113-5.9204l155.7148-829.8452l235.7383-2.3364l28.0977-0.396
			c54.7822-0.7764,107.3496,19.1069,147.9219,55.9751l96.4316,87.625l196.5859-395.3545l338.2256,143.4961l-2.3848,4.7617
			l-277.7891,554.7871c-11.0068,21.9814-26.1328,40.9502-44.959,56.3799c-18.127,14.8564-38.7871,25.7324-61.4072,32.3267
			c-22.6191,6.5942-45.8887,8.5249-69.1572,5.7358c-24.1689-2.896-47.1191-10.7646-68.2139-23.3882l-33.4189-19.999
			L1094.9033,2707.8086z M393.5469,2697.6704l689.0283,0.1357l-73.0898-346.6265l53.0615,31.7539
			c39.3945,23.5742,85.3613,29.4824,129.4385,16.6328c44.0742-12.8486,79.667-42.5322,100.2227-83.5835l275.4053-550.0254
			l-319.7539-135.6592l-198.2832,398.7686l-106.2207-96.521c-38.6895-35.1562-88.7783-54.0986-141.0566-53.377l-28.1182,0.3965
			l-227.5449,2.2549L393.5469,2697.6704z"/><rect width="9.999" height="149.889" x="993.867" y="2213.621" fill="#231f20" transform="rotate(-13.799 998.694 2288.295)"/><rect width="9.999" height="65.017" x="1066.522" y="2010.895" fill="#231f20" transform="rotate(-46.235 1071.6 2043.427)"/><path fill="#fff" d="M1706.0902,1462.8812v-0.0001c-7.6836-11.111-22.6436-14.1886-34.04-7.265l14.4785-10.0139
			c11.5322-7.9757,14.415-23.7898,6.4395-35.3218v-0.0001c-7.6846-11.1108-22.6436-14.1885-34.04-7.2655l5.4307-3.7556
			c11.5312-7.9758,14.415-23.7899,6.4385-35.3219v-0.0001c-7.9756-11.532-23.7891-14.4149-35.3213-6.4392l-9.0078,6.2295
			c10.5-8.2203,12.8994-23.3036,5.2148-34.4146v-0.0001c-7.9756-11.532-23.79-14.4149-35.3213-6.4393l-201.8135,139.5771
			c0,0-30.4189,11.1244-48.0273,81.3044c-17.6084,70.1802-38.8406,106.4919-38.8406,106.4919l202.7529,86.5709l8.0193-49.2378
			c0,0,48.7354-23.7317,57.5537-103.8622l0,0l123.6455-85.5149C1711.184,1490.2273,1714.0668,1474.4132,1706.0902,1462.8812z"/><path fill="#231f20" d="M1514.3428,1743.9233l-213.8408-91.3047l2.8623-4.8955c0.208-0.356,21.1123-36.6548,38.3066-105.1851
			c16.8008-66.9614,45.499-82.3022,50.4619-84.4961l201.3848-139.2808c6.6758-4.6177,14.751-6.3579,22.7344-4.9023
			c7.9854,1.4556,14.9258,5.9341,19.543,12.6099c4.7998,6.9399,6.3203,15.2285,4.8496,22.9683
			c12.4023-3.9678,26.4805,0.4014,34.2646,11.6558c7.1182,10.2905,6.9932,23.4722,0.7344,33.4585
			c8.3838,0.9937,16.2959,5.4526,21.4365,12.8848c4.6172,6.6763,6.3584,14.7505,4.9023,22.7358
			c-1.2578,6.8999-4.7725,13.0195-10.0117,17.5342c7.168,1.6357,13.7529,5.8545,18.2314,12.3315v-0.0005
			c4.6172,6.6753,6.3584,14.75,4.9033,22.7354c-1.4561,7.9854-5.9336,14.9258-12.6104,19.543l-121.7822,84.2261
			c-8.5752,71.0547-47.5654,98.2935-57.7178,104.2476L1514.3428,1743.9233z M1314.6924,1647.8042l191.832,81.9082l7.4092-45.4932
			l2.3291-1.1348c0.1025-0.0503,11.7148-5.8984,24.1934-21.04c11.5303-13.9912,26.1953-39.0322,30.5801-78.8735l0.249-2.2676
			l125.5225-86.8125c4.4785-3.0977,7.4834-7.7544,8.46-13.1118s-0.1914-10.7744-3.29-15.2534v-0.0005
			c-6.1279-8.8608-18.1328-11.4229-27.332-5.8359l-5.4395-8.3853l14.4785-10.0142c4.4785-3.0977,7.4834-7.7539,8.46-13.1113
			c0.9766-5.3579-0.1914-10.7749-3.2891-15.2539c-6.1289-8.8608-18.1318-11.4238-27.332-5.8364l-5.4395-8.3857l5.4307-3.7554
			c4.4785-3.0977,7.4824-7.7544,8.459-13.1118c0.9775-5.3574-0.1914-10.7744-3.2891-15.2534s-7.7539-7.4839-13.1113-8.4604
			c-5.3555-0.9771-10.7754,0.1919-15.2539,3.2891l-9.0078,6.2295l-5.9258-8.0493c8.4746-6.6348,10.3125-18.7729,4.1846-27.6333
			c-3.0977-4.479-7.7539-7.4839-13.1113-8.4604c-5.3555-0.9761-10.7744,0.1909-15.2529,3.2891l-202.3398,139.9409l-0.6006,0.2197
			c-0.2295,0.0908-28.3262,11.7861-44.8955,77.8252C1337.2695,1601.1733,1321.0244,1635.6016,1314.6924,1647.8042z"/><path fill="#fff" d="M752.2174,1774.3914c0,0-20.3478,79.826,21.913,100.1738c0,0-79.8261,67.3043-133.0435,0l26.0155-100.1738
			H752.2174z"/><path fill="#231f20" d="M699.2949,1909.4819c-2.6758,0-5.3652-0.1284-8.0742-0.4019c-21.0693-2.1274-39.2559-12.6963-54.0557-31.4136
			l-1.543-1.9507l27.6133-106.3247h95.4111l-1.583,6.2329c-0.1934,0.7593-18.8408,76.103,19.2363,94.4365l6.958,3.3501
			l-5.9043,4.9775C775.7559,1879.7358,739.9746,1909.4819,699.2949,1909.4819z M646.5615,1873.3774
			c12.7461,15.3071,28.0811,23.9658,45.6182,25.7485c30.6787,3.1201,60.7803-15.3823,73.0137-24.0684
			c-30.8047-22.1523-22.9424-76.9917-19.2051-95.6665h-75.0186L646.5615,1873.3774z"/><path fill="#fff" d="M753.7826,1596.6025c0,0,133.0435,195.7261-25.0435,210.2357
			C570.6522,1821.3478,553.4348,1586.292,753.7826,1596.6025z"/><path fill="#231f20" d="M715.0986,1812.4727c-41.541,0-76.2109-17.5566-96.4785-49.353
			c-21.4121-33.5923-22.3486-77.4482-2.3838-111.7275c11.207-19.2441,28.6094-34.832,50.3242-45.0791
			c24.3516-11.4907,53.7793-16.438,87.4785-14.7036l2.4814,0.1274l1.3965,2.0547c3.1123,4.5781,75.8701,112.8442,46.084,175.9272
			c-11.5381,24.438-36.7061,38.6021-74.8047,42.0986C724.4189,1812.2559,719.7158,1812.4727,715.0986,1812.4727z M740.875,1601.2642
			c-72.6152,0-103.7119,34.0649-115.998,55.1602c-18.1006,31.0801-17.2461,70.8506,2.1758,101.3203
			c20.4385,32.0649,57.3428,48.1406,101.2295,44.1147c34.3193-3.1499,56.751-15.3975,66.6729-36.4028
			c25.2529-53.4629-34.0771-148.7588-43.9482-163.978C747.543,1601.334,744.166,1601.2642,740.875,1601.2642z"/><path fill="#ff5163" d="M694.1968,1669.5217c0,0,111.2379-39.1304,58.0206-128.3478
			c-53.2174-89.2174-201.9131-37.5653-222.2609,95.4783c-20.3478,133.0435-112.6957,144.9894-144,211.7991
			c-31.3044,66.8096,7.8261,101.2444-79.8261,159.1573c-87.6522,57.9131-280.1739,295.738-12.5217,418.6516
			s218.1254-35.1733,324.2801-64.9124c106.1547-29.7393,135.8938-151.2158,65.459-277.521S653.6087,1912.1305,670.8261,1837
			C688.0435,1761.8695,615.8285,1733.6957,694.1968,1669.5217z"/><path fill="#231f20" d="M451.3457,2477.4419c-39.5957,0-91.2861-15.1631-159.8242-46.6377
			c-87.041-39.9722-133.873-95.3604-139.1953-164.626c-4.7363-61.6406,25.0566-120.3706,50.8828-158.7847
			c33.6934-50.1133,73.834-86.5591,100.166-103.9561c55.1074-36.4111,58.2334-62.2891,62.1904-95.0518
			c2.1514-17.8101,4.5898-37.9961,15.8633-62.0562c12.0303-25.6763,32.5703-43.4082,54.3154-62.1812
			c35.9639-31.0488,76.7266-66.2397,89.2695-148.252c5.6953-37.2354,21.6211-70.6289,46.0576-96.5708
			c22.2246-23.5952,50.4609-39.7163,79.5059-45.3936c44.4609-8.688,84.0625,8.0127,105.9346,44.6802
			c15.3516,25.7368,19.0449,50.0864,10.9766,72.3716c-14.7324,40.6934-63.4355,60.2056-70.7764,62.9434
			c-44.3457,36.5869-37.3223,58.9941-27.6143,89.9448c6.3965,20.394,13.6465,43.5088,6.6025,74.2451
			c-3.3809,14.749-7.6484,28.3521-11.7773,41.5073c-17.1426,54.6323-31.9473,101.8145,23.792,201.7671
			c40.2305,72.1431,49.7764,146.0166,26.1875,202.6782c-17.1328,41.1558-49.8672,69.5425-94.665,82.0923
			c-32.7012,9.1616-49.5889,30.6709-67.4688,53.4429c-18.6807,23.793-37.998,48.396-76.0918,55.666
			C468.1143,2476.7139,460.0195,2477.4419,451.3457,2477.4419z M673.1387,1501.6958c-6.7041,0-13.6025,0.6743-20.6436,2.0508
			c-49.8486,9.7437-105.543,54.8521-117.5967,133.6616c-13.1006,85.6592-55.3467,122.1309-92.6191,154.3096
			c-20.915,18.0562-40.6699,35.1104-51.7959,58.855c-10.5928,22.6079-12.8281,41.1147-14.9902,59.0117
			c-4.0977,33.9312-7.6377,63.2344-66.6064,102.1958c-55.1123,36.4141-154.6914,148.1943-146.5898,253.6318
			c5.0225,65.3735,49.9043,117.9619,133.3984,156.3042c66.6328,30.6001,118.0488,45.6689,156.127,45.6704
			c7.8965,0.0005,15.2129-0.6475,21.9795-1.9385c34.416-6.5679,51.75-28.6455,70.1016-52.0186
			c18.0859-23.0347,36.7871-46.8535,72.6367-56.8965c41.7422-11.6938,72.2168-38.0806,88.1309-76.3066
			c22.4033-53.8159,13.04-124.5132-25.6904-193.9648c-57.835-103.7109-41.6904-155.1606-24.5986-209.6313
			c4.0703-12.9702,8.2783-26.3818,11.5703-40.7471c6.4395-28.0952-0.0859-48.8994-6.3965-69.0186
			c-4.9854-15.896-9.6943-30.9102-6.7529-47.314c3.2412-18.0688,15.3877-35.1953,38.2266-53.8975l0.6797-0.5566l0.8262-0.2905
			c0.5137-0.1816,51.6035-18.6201,65.5645-57.2646c6.9795-19.3179,3.5557-40.7856-10.1758-63.8062
			C731.749,1516.6182,704.6504,1501.6958,673.1387,1501.6958z"/><path fill="#231f20" d="M1540.4062,1429.3887l-5.6875-8.2246l87.6816-60.6416c5.5791-3.8589,8.8652-10.2192,8.791-17.0142l10-0.1094
			c0.1104,10.1211-4.7881,19.5972-13.1025,25.3481L1540.4062,1429.3887z"/><path fill="#231f20" d="M1559.7139,1477.7119l-5.6875-8.2246l107.4883-74.3403c2.2656-1.5674,4.1553-3.5288,5.6162-5.8296
			l8.4414,5.3594c-2.1816,3.437-4.9971,6.3618-8.3691,8.6948L1559.7139,1477.7119z"/><path fill="#231f20" d="M1589.7217,1518.6348l-5.6875-8.2246l99.6514-68.9204c4.0312-2.7881,6.9238-6.9346,8.1445-11.6748
			l9.6836,2.4932c-1.8203,7.0688-6.1318,13.2505-12.1406,17.4062L1589.7217,1518.6348z"/><path fill="#fff" d="M2197.4829,2071.9441c0,0,112.6648,158.6741,4.4255,237.0381s29.0793,130.4204-30.6946,243.0964
		c-59.7739,112.6763-134.0874,67.0742-159.1279,111.1089s-165.59,39.4861-165.59,39.4861s-97.7385-164.5195,33.9257-259.2971
		c131.6643-94.7778,131.6643-180.2747,131.6643-252.9385S2121.5537,2021.3137,2197.4829,2071.9441z"/><path fill="#231f20" d="M1857.335,2707.7998c-6.8057,0-10.8818-0.125-11.001-0.1284l-2.7373-0.0889l-1.3994-2.355
		c-1.0176-1.7139-25.0264-42.5845-33.0566-95.9165c-4.748-31.5337-2.8369-60.7983,5.6797-86.9814
		c10.6787-32.8296,31.7676-60.7583,62.6807-83.0112c129.585-93.2812,129.585-175.9463,129.585-248.8804
		c0-43.2817,36.96-95.6982,85.9717-121.9253c38.7412-20.731,76.8145-20.9907,107.1982-0.7285l0.7686,0.5127l0.5352,0.7529
		c1.1699,1.6475,28.8164,40.918,43.5195,90.6084c8.7217,29.4736,10.9834,56.4272,6.7217,80.1123
		c-5.3887,29.9546-21.1885,54.603-46.9609,73.2617c-55.1191,39.9062-43.4492,71.415-28.6748,111.3066
		c13.1953,35.6274,28.1514,76.0083-0.5342,130.083c-37.9326,71.5039-82.7734,81.3574-115.5156,88.5518
		c-19.6543,4.3193-35.1787,7.7305-43.6826,22.6855c-11.2178,19.7271-43.5049,32.7651-95.9648,38.7524
		C1895.0781,2707.3091,1870.8359,2707.7998,1857.335,2707.7998z M1849.4639,2697.7539
		c40.2861,0.9434,139.4209-3.8809,158.2754-37.0381c10.7041-18.8232,29.0205-22.8481,50.2305-27.5088
		c32.5518-7.1533,73.0635-16.0552,108.8271-83.4717c26.5859-50.1167,12.457-88.2651-0.0088-121.9229
		c-14.9561-40.3804-29.082-78.521,32.1875-122.8799c42.9365-31.0854,55.2432-78.9355,36.5781-142.2222
		c-13.1191-44.4849-37.749-81.46-41.6299-87.123c-36.4443-23.7207-75.8291-9.1304-96.1484,1.7427
		c-21.8984,11.7178-42.2295,29.6968-57.249,50.624c-15.1162,21.0615-23.4404,43.2524-23.4404,62.4839
		c0,36.0034,0,76.8105-16.7979,119.9893c-19.208,49.3726-57.4609,94.188-116.9453,137.0073
		c-52.8809,38.0659-74.5332,91.9316-64.3564,160.1001C1825.6143,2651.9307,1844.3057,2688.3384,1849.4639,2697.7539z"/><path fill="#231f20" d="M1874.6611,2704.3716l-9.4062-3.395c0.1084-0.3003,11.0947-30.519,32.7178-70.7383
		c19.9658-37.1353,53.3877-90.7358,99.2236-135.2041c35.2637-34.21,67.5488-101.8887,93.3652-195.7183
		c19.6182-71.2979,28.666-133.0566,28.7549-133.6724l9.8965,1.4321c-0.0898,0.6206-9.209,62.9014-28.9795,134.7837
		c-26.6709,96.9717-58.9941,164.3799-96.0742,200.3525C1918.2012,2585.6035,1875.0859,2703.1934,1874.6611,2704.3716z"/><path fill="#fff" d="M1540.7273,2164.5635c0,0-96.1241,135.3787-3.7759,202.2378
		c92.3483,66.8589-24.8101,111.2727,26.1882,207.4065c50.9983,96.1335,114.4015,57.2266,135.7657,94.7964
		c21.3641,37.5698,141.2791,33.689,141.2791,33.689s83.3892-140.3657-28.9449-221.2288s-112.3341-153.8076-112.3341-215.8035
		S1605.5089,2121.3665,1540.7273,2164.5635z"/><path fill="#231f20" d="M1830.9414,2707.8008c-11.5391,0-32.2539-0.4194-53.9521-2.8955
		c-45.0029-5.1357-72.7373-16.3833-82.4307-33.4292c-7.0938-12.4756-19.5498-15.2124-36.7891-19.001
		c-28.0752-6.1689-66.5244-14.6182-99.0469-75.9243c-24.6289-46.4263-11.8076-81.0425-0.4961-111.584
		c6.1162-16.5146,11.8936-32.1133,10.1504-47.0928c-1.9199-16.5005-12.8369-31.4424-34.3574-47.0229
		c-39.6348-28.6948-51.6006-74.2217-34.6055-131.6597c12.5791-42.5107,36.2354-76.1128,37.2363-77.5225l0.5352-0.7529l0.7686-0.5127
		c26.1602-17.4443,58.9102-17.2354,92.2139,0.5854c42.0371,22.4951,73.7373,67.4941,73.7373,104.6719
		c0,62.0498,0,132.3789,110.2549,211.7456c47.5518,34.23,67.8232,84.6265,58.6211,145.7407
		c-6.8721,45.6426-27.4268,80.6328-28.2979,82.1001l-1.3994,2.355l-2.7373,0.0889
		C1840.2441,2707.6938,1836.7578,2707.8008,1830.9414,2707.8008z M1544.2861,2168.2075
		c-3.541,5.1826-24.2734,36.4702-35.3457,74.0356c-15.8135,53.6494-5.4023,94.1943,30.9434,120.5083
		c52.7266,38.1729,40.5801,70.9683,27.7197,105.689c-11.0986,29.9678-22.5762,60.9556-0.0469,103.4238
		c30.3535,57.2188,64.7344,64.7734,92.3584,70.8442c18.2666,4.0137,34.043,7.4805,43.3369,23.8242
		c15.8438,27.8628,99.4551,31.9995,133.96,31.2388c4.6426-8.5352,20.1748-39.1729,25.7236-76.4004
		c8.623-57.8467-9.7529-103.5527-54.6172-135.8486c-50.8701-36.6187-83.5908-74.9624-100.0312-117.2222
		c-14.3818-36.9683-14.3818-71.8574-14.3818-102.6396c0-33.209-30.0693-75.3135-68.4551-95.855
		C1608.2803,2160.6187,1575.0322,2148.2866,1544.2861,2168.2075z"/><path fill="#231f20" d="M1815.4639,2704.3911c-0.3623-1.0034-37.0977-101.1787-110.3066-172.2021
		c-31.7314-30.7837-59.376-88.4072-82.166-171.27c-16.8799-61.373-24.667-114.5552-24.7432-115.0854l9.8965-1.4321
		c0.3027,2.0913,31.1162,209.9263,103.9756,280.6099c74.9092,72.6738,112.3799,174.9604,112.75,175.9854L1815.4639,2704.3911z"/><g><rect width="10" height="89.942" x="556.86" y="1270.874" fill="#231f20"/></g><g><rect width="89.942" height="10" x="516.89" y="1310.845" fill="#231f20"/></g><g><rect width="10" height="89.942" x="1273.73" y="529.774" fill="#231f20"/></g><g><rect width="89.941" height="10" x="1233.76" y="569.745" fill="#231f20"/></g><g><rect width="10" height="89.942" x="769.131" y="571.569" fill="#231f20"/></g><g><rect width="89.942" height="10" x="729.159" y="611.54" fill="#231f20"/></g><g><rect width="10" height="89.942" x="2933.826" y="529.774" fill="#231f20"/></g><g><rect width="89.941" height="10" x="2893.856" y="569.745" fill="#231f20"/></g><g><rect width="10" height="89.942" x="2812.136" y="2316.377" fill="#231f20"/></g><g><rect width="89.942" height="10" x="2772.164" y="2356.348" fill="#231f20"/></g><g><rect width="10" height="89.942" x="2435.708" y="2472.427" fill="#231f20"/></g><g><rect width="89.942" height="10" x="2395.737" y="2512.398" fill="#231f20"/></g><path fill="#231f20" d="M3058.8359,2567.2568l-2.1094-9.7749c0.0723-0.0156,7.376-1.6089,18.9658-5.2383l2.9883,9.543
		C3066.6123,2565.5659,3059.1484,2567.1895,3058.8359,2567.2568z M3088.3477,2558.6074l-3.2559-9.4551
		c6.1846-2.1299,12.416-4.4644,18.5195-6.939l3.7578,9.2676C3101.1006,2554.0225,3094.7002,2556.4199,3088.3477,2558.6074z
		 M3116.7275,2547.5376l-4.0059-9.1621c6.0693-2.6538,12.083-5.4834,17.874-8.4111l4.5117,8.9248
		C3129.1504,2541.9004,3122.9668,2544.8101,3116.7275,2547.5376z M3144.1064,2534.1714l-4.7734-8.7871
		c5.8379-3.1709,11.5645-6.5156,17.0186-9.9404l5.3184,8.4688C3156.0371,2527.4492,3150.1279,2530.9009,3144.1064,2534.1714z
		 M3170.1992,2518.3564l-5.6016-8.2842c5.502-3.7197,10.8418-7.6172,15.8701-11.5835l6.1934,7.8516
		C3181.4414,2510.4575,3175.9023,2514.5,3170.1992,2518.3564z M3194.5469,2499.8662l-6.5-7.5996
		c5.0283-4.3003,9.8477-8.7871,14.3252-13.3364l7.127,7.0146C3204.8223,2490.6973,3199.791,2495.3809,3194.5469,2499.8662z
		 M3216.5049,2478.4902l-7.4453-6.6768c4.3867-4.8916,8.5205-9.981,12.2852-15.1265l8.0703,5.9043
		C3225.4561,2468.0034,3221.1123,2473.3525,3216.5049,2478.4902z M3235.252,2454.1582l-8.3711-5.4707
		c3.5605-5.4473,6.8291-11.1021,9.7168-16.8071l8.9219,4.5146C3242.4678,2442.4277,3239.0127,2448.4043,3235.252,2454.1582z
		 M3249.8955,2427.103l-9.165-4c2.5762-5.9019,4.8379-12.0171,6.7217-18.1753l9.5625,2.9258
		C3255.0195,2414.3755,3252.624,2420.8521,3249.8955,2427.103z M3259.7344,2397.9531l-9.7139-2.375
		c1.5176-6.2041,2.7109-12.6177,3.5479-19.0615l9.916,1.2871C3262.6006,2384.6128,3261.3389,2391.3921,3259.7344,2397.9531z
		 M3264.5342,2367.6084l-9.9707-0.7617c0.3691-4.834,0.5566-9.8062,0.5576-14.7788c0-1.5552-0.0186-3.1226-0.0547-4.7012
		l9.998-0.2295c0.0381,1.6558,0.0566,3.2993,0.0566,4.9316C3265.1201,2357.2949,3264.9229,2362.5229,3264.5342,2367.6084z
		 M3254.6133,2337.6118c-0.4404-6.3491-1.1797-12.8901-2.1982-19.4414l9.8809-1.5361c1.0625,6.8301,1.834,13.6548,2.2939,20.2852
		L3254.6133,2337.6118z M3250.7178,2308.5156c-1.2236-6.2583-2.7256-12.6929-4.4639-19.1245l9.6543-2.6084
		c1.7988,6.6582,3.3545,13.3247,4.624,19.813L3250.7178,2308.5156z M3243.5342,2279.9375
		c-1.8672-6.1201-3.9893-12.3994-6.3086-18.6636l9.3789-3.4717c2.3857,6.4463,4.5713,12.9121,6.4941,19.2183L3243.5342,2279.9375z
		 M3233.6758,2252.0698c-2.3848-5.9521-5.0088-12.0581-7.7988-18.1484l9.0918-4.1641c2.8564,6.2358,5.5439,12.4912,7.9902,18.5928
		L3233.6758,2252.0698z M3221.6592,2224.9795c-2.8115-5.7939-5.8418-11.7241-9.0059-17.626l8.8125-4.7256
		c3.2285,6.0205,6.3203,12.0718,9.1895,17.9863L3221.6592,2224.9795z M3207.8896,2198.668
		c-3.1631-5.6426-6.5244-11.4038-9.9932-17.123l8.5508-5.1855c3.5273,5.8169,6.9473,11.6777,10.165,17.4199L3207.8896,2198.668z
		 M3192.6875,2173.1035c-1.4688-2.3394-2.9678-4.6924-4.4961-7.0586l8.4004-5.4258c1.5518,2.4023,3.0723,4.7905,4.5645,7.165
		L3192.6875,2173.1035z"/><path fill="#231f20" d="M457.5684,1517.293c-0.8008-1.2026-1.5947-2.4038-2.3857-3.604l8.3516-5.501
		c0.7812,1.1865,1.5674,2.375,2.3584,3.564L457.5684,1517.293z M449.6963,1505.2749c-3.6377-5.6333-7.251-11.3467-10.7393-16.9824
		l8.5039-5.2627c3.4541,5.5815,7.0322,11.2407,10.6357,16.8203L449.6963,1505.2749z M433.7119,1479.7202
		c-3.4902-5.7695-6.9316-11.5908-10.2275-17.3022l8.6602-4.999c3.2627,5.6523,6.6689,11.4141,10.124,17.1255L433.7119,1479.7202z
		 M418.5059,1453.6851c-3.292-5.8467-6.5449-11.7793-9.668-17.6338l8.8223-4.707c3.0879,5.7876,6.3047,11.6538,9.5586,17.4346
		L418.5059,1453.6851z M404.1553,1427.1504c-3.1055-5.9868-6.1484-12.0332-9.0449-17.9702l8.9863-4.3853
		c2.8623,5.8643,5.8682,11.8369,8.9355,17.752L404.1553,1427.1504z M390.7559,1400.1099c-2.877-6.0894-5.6895-12.2505-8.3584-18.312
		l9.1523-4.0303c2.6338,5.981,5.4082,12.061,8.2471,18.0708L390.7559,1400.1099z M378.4043,1372.5557
		c-2.6289-6.2012-5.1836-12.4771-7.5938-18.6543l9.3164-3.6348c2.375,6.0874,4.8926,12.2734,7.4844,18.3857L378.4043,1372.5557z
		 M367.2207,1344.4907c-2.3516-6.3018-4.6221-12.6909-6.75-18.9893l9.4746-3.2002c2.0938,6.2002,4.3291,12.4893,6.6445,18.6934
		L367.2207,1344.4907z M357.3232,1315.9243c-2.0527-6.4229-4.0088-12.9194-5.8135-19.3086l9.623-2.7188
		c1.7744,6.2808,3.6973,12.668,5.7158,18.9834L357.3232,1315.9243z M348.8535,1286.8853c-1.7178-6.519-3.3281-13.1152-4.7842-19.605
		l9.7578-2.1895c1.4297,6.3701,3.0098,12.8452,4.6963,19.2456L348.8535,1286.8853z M341.9531,1257.4111
		c-1.3525-6.6196-2.582-13.3013-3.6533-19.8604l9.8691-1.6123c1.0508,6.4292,2.2559,12.9805,3.5811,19.4707L341.9531,1257.4111z
		 M336.7744,1227.5659c-0.9521-6.688-1.7686-13.4375-2.4248-20.0625l9.9512-0.9863c0.6426,6.4839,1.4414,13.0913,2.374,19.6387
		L336.7744,1227.5659z M333.4619,1197.4351c-0.5186-6.7231-0.8887-13.5161-1.1006-20.1904l9.9941-0.3184
		c0.208,6.5249,0.5703,13.1665,1.0771,19.7402L333.4619,1197.4351z M332.1572,1167.1343c-0.0107-1.2275-0.0156-2.4521-0.0156-3.6738
		c0-5.5205,0.1084-11.0918,0.3223-16.5596l9.9922,0.3906c-0.209,5.3384-0.3145,10.7783-0.3145,16.1689
		c0,1.1924,0.0049,2.3877,0.0156,3.585L332.1572,1167.1343z M342.96,1137.4292l-9.9805-0.6328
		c0.4268-6.7261,1.0244-13.5044,1.7744-20.1465l9.9375,1.123C343.958,1124.2529,343.376,1130.8667,342.96,1137.4292z
		 M345.9229,1107.9824l-9.9062-1.3721c0.9229-6.6597,2.0264-13.376,3.2803-19.9614l9.8242,1.8711
		C347.8975,1094.9409,346.8213,1101.4888,345.9229,1107.9824z M351.0908,1078.8521l-9.7734-2.1201
		c1.4248-6.5674,3.0381-13.1816,4.7939-19.6587l9.6523,2.6172C354.0518,1066.0034,352.4795,1072.4507,351.0908,1078.8521z
		 M358.4678,1050.1992l-9.582-2.8594c1.9141-6.4146,4.0273-12.8867,6.2822-19.2378l9.4238,3.3457
		C362.3936,1037.6387,360.334,1043.9473,358.4678,1050.1992z M368.0088,1022.1895l-9.3359-3.583
		c2.4023-6.2607,5-12.5542,7.7188-18.7051l9.1465,4.0435C372.8857,1009.9443,370.3525,1016.083,368.0088,1022.1895z
		 M379.6396,994.9634l-9.0449-4.2661c2.8506-6.0439,5.9043-12.1284,9.0742-18.085l8.8281,4.6987
		C385.4014,983.1255,382.4219,989.0645,379.6396,994.9634z M393.2441,968.645l-8.7148-4.9053
		c3.2725-5.813,6.748-11.6636,10.3311-17.3901l8.4766,5.3042C399.8359,957.2495,396.4404,962.9658,393.2441,968.645z
		 M408.6768,943.332l-8.3555-5.4937c3.6602-5.5674,7.5234-11.1675,11.4814-16.6445l8.1055,5.8574
		C416.0352,932.4097,412.2568,937.8872,408.6768,943.332z M425.7891,919.0947l-7.9785-6.0293
		c4.0225-5.3218,8.2363-10.6602,12.5244-15.8672l7.7188,6.3574C433.8535,908.6553,429.7275,913.8833,425.7891,919.0947z
		 M444.4268,895.9771l-7.5898-6.5117c4.3398-5.0571,8.8682-10.1279,13.4609-15.0718l7.3262,6.8057
		C453.1211,886.0474,448.6807,891.019,444.4268,895.9771z M464.4365,874.0044l-7.1953-6.9443
		c4.6211-4.7891,9.4316-9.5903,14.2988-14.271l6.9316,7.208C473.6943,864.5918,468.9727,869.3042,464.4365,874.0044z
		 M485.6797,853.1885l-6.8008-7.332c4.8916-4.5366,9.9551-9.0684,15.0498-13.4697l6.5371,7.5674
		C495.46,844.2788,490.4854,848.7314,485.6797,853.1885z M508.0273,833.5332l-6.4043-7.6797
		c5.1348-4.2822,10.4258-8.5449,15.7256-12.6704l6.1426,7.8916C518.2793,825.1313,513.0762,829.3228,508.0273,833.5332z
		 M531.374,815.0435l-6.0098-7.9932c5.3516-4.0234,10.8506-8.0176,16.3428-11.8701l5.7422,8.1865
		C542.0469,807.1567,536.6387,811.0854,531.374,815.0435z M555.627,797.731l-5.6074-8.2803
		c5.582-3.7798,11.2744-7.4985,16.9189-11.0522l5.3281,8.4624C566.7158,790.3555,561.1172,794.0132,555.627,797.731z
		 M580.7188,781.6387l-5.1836-8.5518c5.8398-3.5396,11.7246-6.9639,17.4883-10.1782l4.8711,8.7339
		C592.2344,774.7983,586.4561,778.1616,580.7188,781.6387z M606.6182,766.8916l-4.6914-8.8311
		c11.3682-6.0391,18.0801-9.0112,18.3604-9.1348l4.0361,9.1489C624.2578,758.104,617.627,761.0435,606.6182,766.8916z"/></svg>