<svg xmlns="http://www.w3.org/2000/svg" enable-background="new 0 0 600 550" viewBox="0 0 600 550"><linearGradient id="a" x1="235.173" x2="368.696" y1="51.731" y2="432.876" gradientUnits="userSpaceOnUse"><stop offset="0" stop-color="#cedcf9" stop-opacity="0"/><stop offset="1" stop-color="#c3d2ff"/></linearGradient><path fill="url(#a)" d="M502.083 382.574H99.726c-50.147 0-73.148-56.914-34.75-86.193.319-.25.648-.479.967-.728 8.75-6.588 14.47-16.204 14.47-30.266 3.408-18.446-15.407-23.36-20.44-55.33-8.86-56.197 21.277-93.12 54.971-111.905 112.324-62.655 325.5-62.655 417.275-2.023 17.67 11.68 27.017 44.696 19.872 60.273-43.989 95.95-20.15 121.87-1.724 155.704 17.68 32.449-8.411 70.468-48.284 70.468z"/><linearGradient id="b" x1="298.291" x2="300.373" y1="463.226" y2="377.862" gradientUnits="userSpaceOnUse"><stop offset="0" stop-color="#cedcf9" stop-opacity="0"/><stop offset="1" stop-color="#c3d2ff"/></linearGradient><path fill="url(#b)" d="M554.076 433.46v1.317c-.16 27.616-40.063 41.37-180.3 40.7-18.397-.08-37.611-.43-57.124-.999-10.404 14.263-67.179 24.93-135.604 24.61-75.75-.37-137.068-14.083-136.959-30.632.01-1.958.877-3.875 2.532-5.723 7.125-7.93 6.557-18.916-.389-26.967-2.357-2.732-2.284-4.426-2.202-6.502.896-26.167 22.781-46.712 48.911-46.692l409.522.21c28.104.01 51.274 22.532 51.613 50.677z"/><linearGradient id="c" x1="494.706" x2="515.556" y1="178.54" y2="178.54" gradientUnits="userSpaceOnUse"><stop offset="0" stop-color="#d1deff"/><stop offset="1" stop-color="#b2c7ff"/></linearGradient><path fill="url(#c)" d="M515.551 286.778c0 6.834-5.53 12.364-12.363 12.364h-8.482V57.939h8.522c6.4 0 11.656 4.872 12.263 11.12.115 1.151.04-9.126.06 217.719z"/><path fill="#fff" d="M510.307 70.321V286.78a12.352 12.352 0 0 1-12.362 12.361H270.22c-6.836 0-12.374-5.526-12.374-12.361V70.32c0-6.835 5.538-12.373 12.374-12.373h227.725c6.836 0 12.362 5.538 12.362 12.373z"/><path d="M490.163 259.868v39.273H318.118v-39.273a8.414 8.414 0 0 1 8.415-8.415h155.216a8.414 8.414 0 0 1 8.414 8.415zM507.73 99.56v133.666H376.01c-4.884 0-8.839-3.966-8.839-8.85V108.4a8.837 8.837 0 0 1 8.84-8.84h131.72z" opacity=".03"/><linearGradient id="d" x1="257.853" x2="510.316" y1="70.451" y2="70.451" gradientUnits="userSpaceOnUse"><stop offset="0" stop-color="#d1deff"/><stop offset="1" stop-color="#b2c7ff"/></linearGradient><path fill="url(#d)" d="M510.316 70.274v12.687H257.853V70.274c0-6.814 5.51-12.333 12.323-12.333h227.817c6.803 0 12.323 5.52 12.323 12.333z"/><path fill="#fff" d="M274.373 71.06a3.931 3.931 0 1 1-7.86 0 3.93 3.93 0 1 1 7.86 0zM285.076 71.06a3.931 3.931 0 1 1-7.86 0 3.93 3.93 0 1 1 7.86 0zM295.778 71.06a3.931 3.931 0 1 1-7.86 0 3.93 3.93 0 1 1 7.86 0z"/><linearGradient id="e" x1="298.813" x2="319.229" y1="127.694" y2="127.694" gradientUnits="userSpaceOnUse"><stop offset="0" stop-color="#ebf2ff"/><stop offset="1" stop-color="#e1e8ff"/></linearGradient><path fill="url(#e)" d="m309.019 127.692-.001.002.003.002z"/><linearGradient id="f" x1="298.815" x2="319.231" y1="225.153" y2="225.153" gradientUnits="userSpaceOnUse"><stop offset="0" stop-color="#ebf2ff"/><stop offset="1" stop-color="#e1e8ff"/></linearGradient><path fill="url(#f)" d="M309.026 225.155v-.002l-.002-.002z"/><linearGradient id="g" x1="290.272" x2="299.81" y1="176.497" y2="176.05" gradientUnits="userSpaceOnUse"><stop offset="0" stop-color="#d1deff"/><stop offset="1" stop-color="#b2c7ff"/></linearGradient><path fill="url(#g)" d="M298.812 205.931v-59.015h-13.848l.005-.004h-.008v59.023h.008l-.005-.004z"/><linearGradient id="h" x1="332.015" x2="313.741" y1="175.639" y2="178.085" gradientUnits="userSpaceOnUse"><stop offset="0" stop-color="#d1deff"/><stop offset="1" stop-color="#b2c7ff"/></linearGradient><path fill="url(#h)" d="M319.229 146.916v59.015h13.852v-59.015h-13.852z"/><linearGradient id="i" x1="284.967" x2="333.075" y1="137.304" y2="137.304" gradientUnits="userSpaceOnUse"><stop offset="0" stop-color="#ebf2ff"/><stop offset="1" stop-color="#e1e8ff"/></linearGradient><path fill="url(#i)" d="M319.229 146.912h13.846l-24.054-19.216 10.206 19.216z"/><linearGradient id="j" x1="284.969" x2="333.066" y1="137.302" y2="137.302" gradientUnits="userSpaceOnUse"><stop offset="0" stop-color="#ebf2ff"/><stop offset="1" stop-color="#e1e8ff"/></linearGradient><path fill="url(#j)" d="m298.816 146.912 10.202-19.218-.002-.002-24.047 19.22h13.843z"/><linearGradient id="k" x1="298.812" x2="319.229" y1="176.424" y2="176.424" gradientUnits="userSpaceOnUse"><stop offset="0" stop-color="#ebf2ff"/><stop offset="1" stop-color="#e1e8ff"/></linearGradient><path fill="url(#k)" d="M319.229 205.931v-59.015h-20.416v59.015h.002z"/><linearGradient id="l" x1="298.816" x2="319.227" y1="137.303" y2="137.303" gradientUnits="userSpaceOnUse"><stop offset="0" stop-color="#d1deff"/><stop offset="1" stop-color="#b2c7ff"/></linearGradient><path fill="url(#l)" d="m319.227 146.912-10.206-19.216-.003-.002-10.202 19.218z"/><linearGradient id="m" x1="284.978" x2="333.075" y1="215.545" y2="215.545" gradientUnits="userSpaceOnUse"><stop offset="0" stop-color="#ebf2ff"/><stop offset="1" stop-color="#e1e8ff"/></linearGradient><path fill="url(#m)" d="m319.228 205.935-10.201 19.218.002.002 24.046-19.22h-13.846z"/><linearGradient id="n" x1="284.969" x2="333.078" y1="215.543" y2="215.543" gradientUnits="userSpaceOnUse"><stop offset="0" stop-color="#ebf2ff"/><stop offset="1" stop-color="#e1e8ff"/></linearGradient><path fill="url(#n)" d="M298.812 205.935H284.97l24.055 19.216-10.206-19.216z"/><linearGradient id="o" x1="298.818" x2="319.228" y1="215.544" y2="215.544" gradientUnits="userSpaceOnUse"><stop offset="0" stop-color="#d1deff"/><stop offset="1" stop-color="#b2c7ff"/></linearGradient><path fill="url(#o)" d="m298.818 205.935 10.206 19.216.003.002 10.201-19.218z"/><linearGradient id="p" x1="521.892" x2="526.578" y1="162.611" y2="162.611" gradientUnits="userSpaceOnUse"><stop offset="0" stop-color="#909eff"/><stop offset="1" stop-color="#6977e3"/></linearGradient><path fill="url(#p)" d="M521.635 95.781H510.46v133.66h11.174a8.848 8.848 0 0 0 8.846-8.846V104.617c0-4.885-3.961-8.836-8.846-8.836z"/><linearGradient id="q" x1="475.463" x2="397.913" y1="136.058" y2="212.297" gradientUnits="userSpaceOnUse"><stop offset="0" stop-color="#909eff"/><stop offset="1" stop-color="#6977e3"/></linearGradient><path fill="url(#q)" d="M525.963 104.617v115.978a8.848 8.848 0 0 1-8.847 8.846h-137.32a8.847 8.847 0 0 1-8.847-8.846V104.617c0-4.885 3.962-8.836 8.846-8.836h137.321c4.885 0 8.847 3.951 8.847 8.836z"/><path fill="#fff" d="M381.95 114.795h73.608v4.088H381.95zM381.95 124.311h22.223v4.088H381.95zM461.472 124.311h18.347v4.088h-18.347zM486.592 124.311h28.369v4.088h-28.369zM413.77 124.311h33.871v4.088H413.77zM381.95 133.827h36.337v4.088H381.95zM428.469 133.827h22.286v4.088h-22.286zM399.267 143.341h23.439v4.089h-23.439zM431.735 143.341h10.567v4.089h-10.567zM449.218 143.341h21.517v4.089h-21.517zM479.958 143.341h11.143v4.089h-11.143zM498.017 143.341h16.945v4.089h-16.945zM401.188 152.857h14.601v4.089h-14.601zM424.627 152.857h25.744v4.089h-25.744zM417.327 162.373h23.247v4.089h-23.247zM399.242 183.085h20.376v4.088h-20.376zM428.923 183.085h10.749v4.088h-10.749zM474.167 183.085h14.439v4.088h-14.439zM494.061 183.085h17.488v4.088h-17.488zM448.497 183.085h19.092v4.088h-19.092zM428.923 192.6h21.178v4.089h-21.178zM472.081 192.6h21.177v4.089h-21.177zM399.242 192.6h20.376v4.089h-20.376zM428.923 202.116H442.4v4.089h-13.477zM496.307 202.116h17.167v4.089h-17.167zM481.707 202.116h10.589v4.089h-10.589zM449.78 202.116h21.177v4.089H449.78zM399.242 202.116h20.376v4.089h-20.376zM399.242 211.631h20.376v4.089h-20.376zM428.923 211.631h41.393v4.089h-41.393zM476.252 211.631h23.264v4.089h-23.264z"/><linearGradient id="r" x1="270.465" x2="276.062" y1="111.165" y2="111.165" gradientUnits="userSpaceOnUse"><stop offset="0" stop-color="#d1deff"/><stop offset="1" stop-color="#b2c7ff"/></linearGradient><path fill="url(#r)" d="M271.96 105.01c0 2.768 1.455 5.404-1.354 5.404h-.141v1.456h.141c2.79 0 1.355 2.81 1.355 5.312 0 2.155 1.202 3.293 3.477 3.293h.624v-1.547h-.555c-1.144 0-1.676-.592-1.676-1.861 0-1.81 1.222-5.02-1.092-5.94 2.315-.938 1.092-4.038 1.092-5.887 0-1.289.5-1.839 1.676-1.839h.555v-1.547h-.624c-2.242 0-3.477 1.12-3.477 3.156z"/><linearGradient id="s" x1="296.451" x2="302.048" y1="111.165" y2="111.165" gradientUnits="userSpaceOnUse"><stop offset="0" stop-color="#d1deff"/><stop offset="1" stop-color="#b2c7ff"/></linearGradient><path fill="url(#s)" d="M301.907 110.414c-2.81 0-1.355-2.637-1.355-5.404 0-2.006-1.276-3.156-3.5-3.156h-.601v1.547h.553c1.176.02 1.678.57 1.678 1.839 0 1.855-1.253 4.926 1.075 5.888-2.34.945-1.075 4.14-1.075 5.939 0 2.288-1.95 1.786-2.231 1.86v1.548c.665-.092 4.1.41 4.1-3.293 0-2.495-1.436-5.312 1.356-5.312h.14v-1.456h-.14z"/><linearGradient id="t" x1="278.384" x2="294.107" y1="106.588" y2="106.588" gradientUnits="userSpaceOnUse"><stop offset="0" stop-color="#d1deff"/><stop offset="1" stop-color="#b2c7ff"/></linearGradient><path fill="url(#t)" d="M278.384 105.704h15.723v1.767h-15.723z"/><linearGradient id="u" x1="278.384" x2="294.107" y1="110.597" y2="110.597" gradientUnits="userSpaceOnUse"><stop offset="0" stop-color="#d1deff"/><stop offset="1" stop-color="#b2c7ff"/></linearGradient><path fill="url(#u)" d="M278.384 109.714h15.723v1.767h-15.723z"/><linearGradient id="v" x1="278.384" x2="294.107" y1="114.607" y2="114.607" gradientUnits="userSpaceOnUse"><stop offset="0" stop-color="#d1deff"/><stop offset="1" stop-color="#b2c7ff"/></linearGradient><path fill="url(#v)" d="M278.384 113.724h5.507v1.767h-5.507z"/><linearGradient id="w" x1="281.44" x2="291.293" y1="114.607" y2="114.607" gradientUnits="userSpaceOnUse"><stop offset="0" stop-color="#d1deff"/><stop offset="1" stop-color="#b2c7ff"/></linearGradient><path fill="url(#w)" d="M286.57 113.724h4.723v1.767h-4.723z"/><linearGradient id="x" x1="329.097" x2="340.639" y1="227.537" y2="227.537" gradientUnits="userSpaceOnUse"><stop offset="0" stop-color="#d1deff"/><stop offset="1" stop-color="#b2c7ff"/></linearGradient><path fill="url(#x)" d="m332.371 230.095-1.432 4.338h-1.842l4.687-13.792h2.148l4.707 13.792h-1.903l-1.474-4.338h-4.89zm4.523-1.391c-1.353-4.132-1.318-3.563-2.067-6.487h-.041c-.72 2.884-1.049 3.417-2.046 6.487h4.154z"/><linearGradient id="y" x1="342.465" x2="351.92" y1="227.281" y2="227.281" gradientUnits="userSpaceOnUse"><stop offset="0" stop-color="#d1deff"/><stop offset="1" stop-color="#b2c7ff"/></linearGradient><path fill="url(#y)" d="M342.465 234.433c.15-2.49.05-3.78.082-14.529h1.78v6.221h.041c.635-1.105 1.78-1.821 3.377-1.821 2.456 0 4.195 2.046 4.174 5.054 0 3.54-2.23 5.3-4.44 5.3-1.433 0-2.579-.552-3.315-1.862h-.062l-.081 1.637h-1.556zm1.862-3.97c0 1.39 1.136 2.763 2.783 2.763 1.883 0 3.008-1.535 3.008-3.806 0-1.985-1.023-3.684-2.946-3.684-1.6 0-2.845 1.405-2.845 2.947v1.78z"/><linearGradient id="z" x1="353.479" x2="361.296" y1="229.481" y2="229.481" gradientUnits="userSpaceOnUse"><stop offset="0" stop-color="#d1deff"/><stop offset="1" stop-color="#b2c7ff"/></linearGradient><path fill="url(#z)" d="M361.254 234.065c-.47.246-1.514.573-2.844.573-2.987 0-4.931-2.026-4.931-5.054 0-3.05 2.087-5.26 5.32-5.26 1.064 0 2.005.267 2.497.512l-.41 1.392c-.43-.246-1.105-.471-2.087-.471-2.272 0-3.5 1.678-3.5 3.745 0 2.292 1.474 3.704 3.439 3.704 1.023 0 1.698-.266 2.21-.491l.306 1.35z"/><linearGradient id="A" x1="407.073" x2="407.073" y1="299.131" y2="228.456" gradientUnits="userSpaceOnUse"><stop offset="0" stop-color="#ebf2ff"/><stop offset=".627" stop-color="#e7eeff"/><stop offset="1" stop-color="#e1e8ff"/></linearGradient><path fill="url(#A)" d="M493.095 255.277v53.847a8.414 8.414 0 0 1-8.414 8.414H329.465a8.414 8.414 0 0 1-8.414-8.414v-53.847a8.414 8.414 0 0 1 8.414-8.415h155.216a8.414 8.414 0 0 1 8.414 8.415z"/><linearGradient id="B" x1="346.273" x2="346.273" y1="282.203" y2="257.048" gradientUnits="userSpaceOnUse"><stop offset="0" stop-color="#d1deff"/><stop offset="1" stop-color="#b2c7ff"/></linearGradient><path fill="url(#B)" d="M358.851 259.197v20.857a2.15 2.15 0 0 1-2.149 2.15h-20.857a2.15 2.15 0 0 1-2.15-2.15v-20.857a2.15 2.15 0 0 1 2.15-2.15h20.857a2.15 2.15 0 0 1 2.15 2.15z"/><linearGradient id="C" x1="424.983" x2="424.983" y1="263.912" y2="266.908" gradientUnits="userSpaceOnUse"><stop offset="0" stop-color="#d1deff"/><stop offset="1" stop-color="#b2c7ff"/></linearGradient><path fill="url(#C)" d="M369.516 261.779H480.45v3.055H369.516z"/><linearGradient id="D" x1="424.983" x2="424.983" y1="272.416" y2="275.412" gradientUnits="userSpaceOnUse"><stop offset="0" stop-color="#d1deff"/><stop offset="1" stop-color="#b2c7ff"/></linearGradient><path fill="url(#D)" d="M369.516 270.283H480.45v3.055H369.516z"/><linearGradient id="E" x1="424.983" x2="424.983" y1="280.92" y2="283.915" gradientUnits="userSpaceOnUse"><stop offset="0" stop-color="#d1deff"/><stop offset="1" stop-color="#b2c7ff"/></linearGradient><path fill="url(#E)" d="M369.516 278.786H480.45v3.055H369.516z"/><linearGradient id="F" x1="407.302" x2="407.302" y1="289.423" y2="292.419" gradientUnits="userSpaceOnUse"><stop offset="0" stop-color="#d1deff"/><stop offset="1" stop-color="#b2c7ff"/></linearGradient><path fill="url(#F)" d="M334.154 287.29h146.297v3.055H334.154z"/><linearGradient id="G" x1="407.302" x2="407.302" y1="297.927" y2="300.923" gradientUnits="userSpaceOnUse"><stop offset="0" stop-color="#d1deff"/><stop offset="1" stop-color="#b2c7ff"/></linearGradient><path fill="url(#G)" d="M334.154 295.794h146.297v3.055H334.154z"/><linearGradient id="H" x1="407.302" x2="407.302" y1="306.431" y2="309.426" gradientUnits="userSpaceOnUse"><stop offset="0" stop-color="#d1deff"/><stop offset="1" stop-color="#b2c7ff"/></linearGradient><path fill="url(#H)" d="M334.154 304.297h146.297v3.055H334.154z"/><path fill="#fff" d="M472.27 158.941c-.454-.454-1.074-.629-1.824-.343l-10.736 4.816c-.77.363-1.29 1.04-1.29 1.908v.215c0 .872.523 1.547 1.3 1.912l10.726 4.811.032.014c.608.229 1.307.128 1.794-.358.847-.85.504-2.247-.587-2.701l-8.518-3.786 8.505-3.78c1.152-.479 1.417-1.885.599-2.708zM481.593 153.42l-7.125 20.837c-.406 1.232.456 2.246 1.557 2.246a1.63 1.63 0 0 0 1.582-1.134l7.125-20.837c.23-.693.07-1.305-.356-1.751-.794-.825-2.364-.62-2.783.639zM499.454 163.409l-10.734-4.815c-1.024-.438-2.291.266-2.291 1.513 0 .689.465 1.29 1.06 1.536l8.518 3.786-8.507 3.78c-1.151.484-1.414 1.893-.597 2.708.514.514 1.277.58 1.826.343l10.734-4.815c.77-.361 1.292-1.04 1.292-1.908v-.215c0-.87-.518-1.543-1.301-1.913z"/><path fill="#ffdad9" d="m193.33 447.138-16.163-.172 1.004-15.38 15.616.483-.31 14.94a.147.147 0 0 1-.148.13z"/><path fill="#373a50" d="m176.785 446.49-2.8 11.693a4.081 4.081 0 0 0 3.868 4.863c10.317.346 30.594.004 34.338-.03a.557.557 0 0 0 .55-.537c.168-3.577-2.208-5.85-5.708-7.61l-13.496-9.088a.147.147 0 0 0-.083-.02l-16.67.73z"/><path fill="#ffdad9" d="m128.547 438.982-13.394-9.048 9.312-12.283 12.765 9.007-8.489 12.298a.147.147 0 0 1-.194.026z"/><path fill="#373a50" d="m115.096 429.327-8.777 8.215a4.081 4.081 0 0 0 .548 6.19c8.42 5.972 25.53 16.857 28.674 18.892.25.163.579.097.755-.145 2.11-2.893 1.38-6.1-.572-9.496l-6.256-15.02a.147.147 0 0 0-.058-.062l-14.314-8.574zM93.967 366.234h2.712v84.131h-2.712z"/><path fill="#3a4ac3" d="m145.612 354.737-26.355 66.797 14.518 11.752 34.06-53.858c-5.873-14.453-12.138-27.316-22.223-24.691z"/><path fill="#3a4ac3" d="M69.044 320.82 66.4 342.104c-.288 9.696 7.494 17.713 17.194 17.713h68.128l23.25 80.147c.274 3.447 21.377 1.778 21.105-1.67 0 0-8.043-92.94-17.982-101.385-13.13-11.155-65.908-15.677-65.908-15.677l-43.142-.412z"/><path fill="#ffdad9" d="M123.64 231.992c-.408.461-.838 1.674-1.268 3.231-1.352 4.897-2.662 13.304-2.662 13.304l-16.59-11.446c6.089-8.718 8.172-15.16 8.172-15.16s1.256.321 2.985.89c4.692 1.579 12.917 5.036 9.363 9.18z"/><path fill="#fecdcb" d="M123.64 231.992c-.408.461-.838 1.674-1.268 3.231 0 0-7.72-7.59-8.997-10.06-.376-.72.075-1.536.902-2.352 4.692 1.579 12.917 5.036 9.363 9.18z"/><path fill="#ffdad9" d="M141.732 219.225c0 1.138-2.545 1.374-2.545 1.374s-.118 1.858-.483 4.188c-.399 2.502-1.266 6.732-3.082 8.471-1.589 1.525-18.242.73-24.33-11.338l-5.756-7.795 4.188-15.784s11.414-3.8 21.98-3.608c10.586.183 7.43 19.123 7.43 19.123s2.598 4.36 2.598 5.369z"/><path fill="#111228" d="M111.296 221.92s.41-2.283-.657-4.97c-1.191-3.002-2.189-5.284-.966-6.91 3.203-4.258 7.924 3.962 7.924 3.962l2.403-.65.455-13.444s19.094 6.625 23.835 0 2.858-15.847-4.092-14.418c-6.949 1.429-17.016 1.819-17.016 1.819s-18.704-1.884-20.263 6.04-6.627 19.603 8.377 28.571z"/><path fill="#ffdad9" d="M199.723 276.15s3.707 6.767 1.614 8.202c-4.355 2.99-15.148 1.674-15.148 1.674l4.066-9.876s1.874-10.703 4.634-9.587c2.76 1.106 1.794 5.78 1.794 5.78s13.165-6.647 14.69-4.285c1.534 2.362-11.65 8.092-11.65 8.092z"/><path fill="#eac250" d="M104.04 267.883c7.074 10.294 25.36 39.398 34.428 40.866 7.73 1.25 56.896-20.79 56.896-20.79l-5.256-13.327-41.01 10.282s-18.785-28.916-24.573-34.239c-10.283-9.456-28.693 5.263-20.484 17.208z"/><path fill="#fadf68" d="m124.932 296.543 2.015 26.35c0 1.02-9.073 2.996-20.305 4.918-18.231 3.103-40.25 1.653-40.25 0 0 0 16.873-85.833 37.676-93.449 7.811-2.86 18.67 11.678 20.457 17.628 4.528 15.074.407 44.553.407 44.553z"/><path fill="#eac250" d="M131.778 296.747c-.612 9.192-2.136 18.222-4.831 26.146 0 1.02-9.073 2.996-20.305 4.918 3.35-5.98 4.779-13.046 3.64-19.821-1.932-11.489-10.297-21.002-12.884-32.373-2.201-9.717-.709-16.6 5.476-24.417 5.39 1.804 8.6 7.388 10.243 12.831 1.632 5.455 2.244 11.275 4.842 16.342 1.73 3.372 4.263 6.25 6.83 9.041a299.442 299.442 0 0 0 6.99 7.333z"/><path fill="#ffdad9" d="m194.516 313.412-5.594-2.856-13.561.182.601-8.707s5.508-5.605 8.042-3.34c2.416 2.158-.44 3.737-.698 3.877.655-.14 13.095-.303 13.054 2.866-.086 6.699-1.844 7.978-1.844 7.978z"/><path fill="#fadf68" d="M99.156 260.482c2.803 12.17 9.134 45.955 17.032 50.647 6.732 4 60.556 1.536 60.556 1.536v-12.341l-41.923-7.468s-6.865-33.79-10.296-40.866c-6.096-12.57-28.623-5.633-25.37 8.492z"/><path fill="#b2c7ff" d="M144.834 362.777v3.205a2.996 2.996 0 0 1-2.996 2.996H63.99a2.996 2.996 0 0 1-2.996-2.996v-3.205a2.996 2.996 0 0 1 2.996-2.995h77.848a2.996 2.996 0 0 1 2.996 2.995z"/><path fill="#b2c7ff" d="m67.156 368.482-3.166.496a2.996 2.996 0 0 1-3.424-2.496L45.795 272.56a2.996 2.996 0 0 1 2.496-3.424l3.166-.496a2.996 2.996 0 0 1 3.424 2.496l14.771 93.924a2.996 2.996 0 0 1-2.496 3.423z"/><path fill="#373a50" d="M126.423 462.951c-.291-1.685-1.68-3.026-3.44-3.178-13.2-1.136-26.294-9.408-26.294-9.408h-2.722s-13.095 8.272-26.296 9.408c-1.759.152-3.147 1.493-3.439 3.178h62.191zM220.318 318.562h-42.782c0-1.23.494-2.351 1.301-3.147a4.39 4.39 0 0 1 3.147-1.314h33.886a4.456 4.456 0 0 1 4.448 4.46zM152.936 462.951l21.194-123.206a16.847 16.847 0 0 1 16.64-14.023H276a16.847 16.847 0 0 1 16.641 14.023l21.194 123.206h3.67l-21.3-123.82a20.457 20.457 0 0 0-20.204-17.026H190.77a20.456 20.456 0 0 0-20.205 17.026l-21.299 123.82h3.67z"/><path fill="#b2c7ff" d="M295.67 320.836v2.616a2.267 2.267 0 0 1-2.278 2.267H173.374a2.274 2.274 0 0 1-2.278-2.267v-2.616a2.284 2.284 0 0 1 2.278-2.278h120.018a2.277 2.277 0 0 1 2.278 2.278z"/><path d="M268.146 318.562h-21.478a1.808 1.808 0 1 1 0-3.616h21.587c3.063 0 6.057-1.29 7.933-3.71 1.954-2.522 2.53-5.732 1.58-8.761l-16.976-54.216 3.452-1.08 16.976 54.215c1.28 4.088.545 8.415-2.02 11.854-2.57 3.447-6.754 5.314-11.054 5.314z"/><path fill="#111228" d="M267.123 234.06c1.273-3.178 6.127-1.412 5.247 1.895l-12.215 45.929c-.059.222-.13.438-.214.647-1.27 3.18-6.129 1.415-5.249-1.894l12.216-45.93c.06-.223.131-.44.215-.648z"/><path fill="#373a50" d="m273.19 214.842-21.831 82.085c-1.277 4.802-6.196 7.666-10.998 6.389l21.835-82.1c1.273-4.787 6.206-7.648 10.994-6.374z"/><ellipse cx="136.266" cy="212.002" fill="#111228" rx="2.047" ry="1.054" transform="rotate(-89.096 136.266 212.002)"/><path fill="#111228" d="M138.1 209.24c-1.328.104-1.595-.297-2.682.252-.282.147-.594.342-.986.463a2.43 2.43 0 0 1 .474-1.052c.533-.705 1.455-.891 2.33-.425.343.182.634.426.863.762z"/><path fill="#fff" d="M138.704 224.787a33.34 33.34 0 0 1-.44 2.308h-.108a2.34 2.34 0 0 1-2.34-2.308h2.888z"/><linearGradient id="I" x1="926.331" x2="981.119" y1="155.219" y2="155.219" gradientTransform="matrix(-1 0 0 1 1174.043 0)" gradientUnits="userSpaceOnUse"><stop offset="0" stop-color="#d1deff"/><stop offset="1" stop-color="#b2c7ff"/></linearGradient><path fill="url(#I)" d="m241.36 172.76.965 5.993c.113.785-.56 1.481-1.346 1.347l-7.003-1.123a27.3 27.3 0 0 1-13.647 3.636c-15.128 0-27.405-12.255-27.405-27.383 0-15.128 12.277-27.405 27.405-27.405 15.128 0 27.383 12.277 27.383 27.405a27.318 27.318 0 0 1-6.352 17.53z"/><path fill="#fff" d="M237.89 158.451v-5.283h-3.85a13.962 13.962 0 0 0-2.143-5.19l2.716-2.716-3.759-3.747-2.704 2.704a13.907 13.907 0 0 0-5.19-2.154v-3.827h-5.295v3.827a13.988 13.988 0 0 0-5.19 2.154l-2.705-2.704-3.747 3.747 2.716 2.716a13.776 13.776 0 0 0-2.143 5.19h-3.85v5.283h3.839c.366 1.89 1.1 3.644 2.143 5.19l-2.705 2.717 3.747 3.735 2.705-2.693a13.767 13.767 0 0 0 5.19 2.143v3.827h5.294v-3.827a13.817 13.817 0 0 0 5.203-2.143l2.692 2.693 3.759-3.735-2.716-2.716a13.853 13.853 0 0 0 2.143-5.19h3.85zm-17.577 4.078a6.719 6.719 0 0 1-6.714-6.714c0-3.71 3.004-6.736 6.714-6.736 3.72 0 6.725 3.027 6.725 6.736 0 3.699-3.004 6.714-6.725 6.714z"/><path fill="#3dcfa4" d="M421.077 406.858s27.357-23.961 27.163-28.909c-.194-4.948-10.574-1.552-11.253-4.85-.68-3.299 15.521-16.59 13.193-19.403s-8.44 4.85-9.41 1.165c-.97-3.687 10.881-22.569-2.134-23.768-16.615-1.53-9.42 20.591-12.127 21.148-3.455.711-8.68-5.122-14.108-.282-9.574 8.537 8.676 54.9 8.676 54.9z"/><path fill="#30bb93" d="M421.992 403.092c.402-4.307.981-8.587 1.634-12.854.645-4.27 1.393-8.52 2.2-12.761.246-1.18 1.702-8.588 2.75-12.662.7-2.916 2.104-8.115 3.242-10.885l.68-1.477-.451 1.553c-.59 2.202-1.767 8.528-2.254 11.073l-2.402 12.7c-.835 4.227-1.65 8.46-2.544 12.68-.883 4.221-1.803 8.437-2.855 12.633z"/><path fill="#30bb93" d="M428.4 371.469c.675-1.697 1.991-3.545 3.178-4.932 1.19-1.391 2.82-2.976 4.387-3.893-.67 1.695-1.992 3.554-3.176 4.931-1.182 1.377-2.811 2.967-4.388 3.894zM424.304 393.111c1.031-1.535 2.728-3.086 4.19-4.206 1.47-1.125 3.42-2.353 5.16-2.938-1.023 1.528-2.72 3.085-4.19 4.206-1.462 1.114-3.404 2.346-5.16 2.938zM424.957 386.392c-1.744-2.14-3.58-5.32-4.769-7.68-1.183-2.329-2.662-5.722-3.344-8.399 1.718 2.102 3.567 5.281 4.769 7.68 1.2 2.373 2.659 5.724 3.344 8.399z"/><path fill="#3dcfa4" d="M420.133 407.296s1.658-25.052-.852-27.373-5.92 4.405-7.862 3.126c-1.941-1.279-.52-15.675-3.03-15.912-2.51-.237-1.753 6.488-4.026 5.162-2.273-1.326-5.705-16.33-12.645-10.561-8.858 7.364 5.454 14.65 4.405 16.244-1.34 2.034-6.738 1.737-7.025 6.75-.507 8.84 31.035 22.564 31.035 22.564z"/><path fill="#30bb93" d="M418.742 405.01c-1.907-2.298-3.714-4.67-5.478-7.072a236.103 236.103 0 0 1-5.156-7.303c-2.203-3.369-4.52-6.722-7.078-11.403-2.069-3.982-1.442-3.098-1.88-4.07 1.402 2.425 1.235 2.118 2.344 3.791.355.553-.007.013 7.526 11.065 1.656 2.472 3.325 4.936 4.948 7.432 1.63 2.492 3.239 5 4.774 7.56z"/><path fill="#30bb93" d="M406.432 386.445c-.499-1.158-.759-2.702-.856-3.958-.099-1.26-.076-2.83.241-4.043.5 1.155.762 2.708.857 3.958.095 1.25.076 2.82-.242 4.043zM414.998 399.01c-.246-1.253-.175-2.838-.008-4.099.168-1.267.52-2.818 1.084-3.953.247 1.245.179 2.834.008 4.1-.17 1.256-.517 2.806-1.084 3.952zM412.036 395.411c-1.896-.193-4.345-.85-6.077-1.421-1.714-.56-4.093-1.494-5.732-2.468 1.864.188 4.319.837 6.076 1.421 1.745.573 4.093 1.497 5.733 2.468z"/><linearGradient id="J" x1="419.336" x2="419.336" y1="405.13" y2="406.989" gradientUnits="userSpaceOnUse"><stop offset="0" stop-color="#909eff"/><stop offset="1" stop-color="#6977e3"/></linearGradient><path fill="url(#J)" d="M404.324 402.977h30.023v5.894h-30.023z"/><linearGradient id="K" x1="419.336" x2="419.336" y1="412.475" y2="418.182" gradientUnits="userSpaceOnUse"><stop offset="0" stop-color="#909eff"/><stop offset="1" stop-color="#6977e3"/></linearGradient><path fill="url(#K)" d="M427.624 426.83h-16.577l-3.684-17.959h23.945z"/></svg>