<svg xmlns="http://www.w3.org/2000/svg" fill="none" viewBox="0 0 3001 3000"><g clip-path="url(#a)"><path fill="#F1F1F1" fill-rule="evenodd" d="M1260.52 963.292C1260.52 946.686 1273.98 933.225 1290.58 933.225H2237.69C2254.29 933.225 2267.76 946.686 2267.76 963.291V2601.94C2267.76 2618.54 2254.29 2632 2237.69 2632H1290.58C1273.98 2632 1260.52 2618.54 1260.52 2601.94V963.292ZM1290.58 948.258C1282.28 948.258 1275.55 954.989 1275.55 963.292V2601.94C1275.55 2610.24 1282.28 2616.97 1290.58 2616.97H2237.69C2245.99 2616.97 2252.72 2610.24 2252.72 2601.94V963.291C2252.72 954.989 2245.99 948.258 2237.69 948.258H1290.58Z" clip-rule="evenodd"/><path fill="#3E3D3D" fill-rule="evenodd" d="M1937.02 2338.85H1576.22V2563.87C1553.94 2574.94 1538.63 2597.92 1538.63 2624.49H1576.22H1937.02H1982.12C1982.12 2595.03 1963.29 2569.97 1937.02 2560.69V2338.85Z" clip-rule="evenodd"/><path fill="#3E3D3D" fill-rule="evenodd" d="M1568.7 2331.33H1944.54V2555.58C1971.08 2567.17 1989.64 2593.65 1989.64 2624.49V2632H1531.12V2624.49C1531.12 2596.65 1546.25 2572.36 1568.7 2559.38V2331.33ZM1583.73 2346.37V2568.53L1579.56 2570.6C1561.88 2579.39 1549.16 2596.6 1546.62 2616.97H1974.14C1971.29 2594.11 1955.61 2575.23 1934.52 2567.77L1929.5 2566V2346.37H1583.73Z" clip-rule="evenodd"/><path fill="#fff" fill-rule="evenodd" d="M2598.49 2128.38V2301.27C2598.49 2326.18 2578.3 2346.37 2553.39 2346.37H967.362C942.454 2346.37 922.262 2326.18 922.262 2301.27V2128.38H2598.49Z" clip-rule="evenodd"/><path fill="#3E3D3D" fill-rule="evenodd" d="M914.746 2120.87H2606.01V2301.27C2606.01 2330.33 2582.45 2353.88 2553.39 2353.88H967.363C938.304 2353.88 914.746 2330.33 914.746 2301.27V2120.87ZM929.78 2135.9V2301.27C929.78 2322.02 946.606 2338.85 967.363 2338.85H2553.39C2574.15 2338.85 2590.97 2322.02 2590.97 2301.27V2135.9H929.78Z" clip-rule="evenodd"/><path fill="#F1F1F1" fill-rule="evenodd" d="M967.362 1083.56C942.454 1083.56 922.262 1103.75 922.262 1128.66V2128.38H2598.49V1128.66C2598.49 1103.75 2578.3 1083.56 2553.39 1083.56H967.362Z" clip-rule="evenodd"/><path fill="#3E3D3D" fill-rule="evenodd" d="M967.367 1091.08C946.61 1091.08 929.783 1107.9 929.783 1128.66V2120.87H2590.98V1128.66C2590.98 1107.9 2574.15 1091.08 2553.4 1091.08H967.367ZM914.75 1128.66C914.75 1099.6 938.307 1076.04 967.367 1076.04H2553.4C2582.45 1076.04 2606.01 1099.6 2606.01 1128.66V2135.9H914.75V1128.66Z" clip-rule="evenodd"/><path fill="#fff" d="M989.914 1181.28C989.914 1168.82 1000.01 1158.73 1012.46 1158.73H2515.81C2528.26 1158.73 2538.36 1168.82 2538.36 1181.28V2053.22C2538.36 2065.67 2528.26 2075.77 2515.81 2075.77H1012.46C1000.01 2075.77 989.914 2065.67 989.914 2053.22V1181.28Z"/><path fill="#F1F1F1" fill-rule="evenodd" d="M1694.36 1399.25C1708.46 1373.6 1735.74 1356.21 1767.08 1356.21C1798.42 1356.21 1825.7 1373.6 1839.79 1399.25C1839.75 1399.31 1839.7 1399.36 1839.66 1399.41C1822.11 1419.82 1796.11 1432.75 1767.08 1432.75C1737.97 1432.75 1711.91 1419.76 1694.36 1399.25Z" clip-rule="evenodd"/><path fill="#F1F1F1" d="M1804.11 1304.68C1804.11 1313.51 1800.75 1321.59 1795.18 1327.8C1788.38 1335.37 1778.32 1340.17 1767.08 1340.17C1746.62 1340.17 1730.04 1324.28 1730.04 1304.68C1730.04 1285.07 1746.62 1269.18 1767.08 1269.18C1787.53 1269.18 1804.11 1285.07 1804.11 1304.68Z"/><path fill="#F1F1F1" fill-rule="evenodd" d="M1767.08 1248.93C1718.39 1248.93 1678.92 1288.4 1678.92 1337.08C1678.92 1385.77 1718.39 1425.24 1767.08 1425.24C1793.82 1425.24 1817.78 1413.34 1833.96 1394.52C1847.23 1379.09 1855.23 1359.03 1855.23 1337.08C1855.23 1288.4 1815.77 1248.93 1767.08 1248.93ZM1663.89 1337.08C1663.89 1280.09 1710.09 1233.89 1767.08 1233.89C1824.07 1233.89 1870.27 1280.09 1870.27 1337.08C1870.27 1362.76 1860.88 1386.26 1845.36 1404.32C1826.45 1426.32 1798.39 1440.28 1767.08 1440.28C1710.09 1440.28 1663.89 1394.08 1663.89 1337.08Z" clip-rule="evenodd"/><path fill="#F1F1F1" fill-rule="evenodd" d="M1968.35 1543.97H1562.45V1528.94H1968.35V1543.97Z" clip-rule="evenodd"/><path fill="#F15846" fill-rule="evenodd" d="M1667.68 1596.59H1562.45V1566.52H1667.68V1596.59Z" clip-rule="evenodd"/><path fill="#F15846" fill-rule="evenodd" d="M1863.11 1491.36H1667.68V1461.29H1863.11V1491.36Z" clip-rule="evenodd"/><path fill="#F15846" fill-rule="evenodd" d="M1667.68 1761.96H1562.45V1731.89H1667.68V1761.96Z" clip-rule="evenodd"/><path fill="#F1F1F1" d="M1554.93 1641.69C1554.93 1629.24 1565.03 1619.14 1577.48 1619.14H1960.83C1973.29 1619.14 1983.38 1629.24 1983.38 1641.69V1664.24C1983.38 1676.69 1973.29 1686.79 1960.83 1686.79H1577.48C1565.03 1686.79 1554.93 1676.69 1554.93 1664.24V1641.69Z"/><path fill="#F1F1F1" d="M1554.93 1799.54C1554.93 1787.09 1565.03 1776.99 1577.48 1776.99H1960.83C1973.29 1776.99 1983.38 1787.09 1983.38 1799.54V1829.61C1983.38 1842.06 1973.29 1852.16 1960.83 1852.16H1577.48C1565.03 1852.16 1554.93 1842.06 1554.93 1829.61V1799.54Z"/><path fill="#F15846" d="M1660.16 1934.84C1660.16 1922.39 1670.26 1912.29 1682.71 1912.29H1855.6C1868.05 1912.29 1878.15 1922.39 1878.15 1934.84V1957.39C1878.15 1969.85 1868.05 1979.94 1855.6 1979.94H1682.71C1670.26 1979.94 1660.16 1969.85 1660.16 1957.39V1934.84Z"/><path fill="#F15846" d="M1600.69 1653.22C1600.69 1657.81 1596.96 1661.54 1592.37 1661.54C1587.77 1661.54 1584.05 1657.81 1584.05 1653.22C1584.05 1648.62 1587.77 1644.9 1592.37 1644.9C1596.96 1644.9 1600.69 1648.62 1600.69 1653.22Z"/><path fill="#F15846" d="M1646.44 1653.22C1646.44 1657.81 1642.72 1661.54 1638.12 1661.54C1633.53 1661.54 1629.8 1657.81 1629.8 1653.22C1629.8 1648.62 1633.53 1644.9 1638.12 1644.9C1642.72 1644.9 1646.44 1648.62 1646.44 1653.22Z"/><path fill="#F15846" d="M1692.2 1653.22C1692.2 1657.81 1688.48 1661.54 1683.88 1661.54C1679.29 1661.54 1675.56 1657.81 1675.56 1653.22C1675.56 1648.62 1679.29 1644.9 1683.88 1644.9C1688.48 1644.9 1692.2 1648.62 1692.2 1653.22Z"/><path fill="#F15846" d="M1737.96 1653.22C1737.96 1657.81 1734.23 1661.54 1729.64 1661.54C1725.05 1661.54 1721.32 1657.81 1721.32 1653.22C1721.32 1648.62 1725.05 1644.9 1729.64 1644.9C1734.23 1644.9 1737.96 1648.62 1737.96 1653.22Z"/><path fill="#F15846" d="M1783.71 1653.22C1783.71 1657.81 1779.99 1661.54 1775.39 1661.54C1770.8 1661.54 1767.07 1657.81 1767.07 1653.22C1767.07 1648.62 1770.8 1644.9 1775.39 1644.9C1779.99 1644.9 1783.71 1648.62 1783.71 1653.22Z"/><path fill="#F15846" d="M1829.47 1653.22C1829.47 1657.81 1825.75 1661.54 1821.15 1661.54C1816.56 1661.54 1812.83 1657.81 1812.83 1653.22C1812.83 1648.62 1816.56 1644.9 1821.15 1644.9C1825.75 1644.9 1829.47 1648.62 1829.47 1653.22Z"/><path fill="#F15846" d="M1875.23 1653.22C1875.23 1657.81 1871.5 1661.54 1866.91 1661.54C1862.31 1661.54 1858.59 1657.81 1858.59 1653.22C1858.59 1648.62 1862.31 1644.9 1866.91 1644.9C1871.5 1644.9 1875.23 1648.62 1875.23 1653.22Z"/><path fill="#F15846" d="M1600.69 1815.45C1600.69 1820.05 1596.96 1823.77 1592.37 1823.77C1587.77 1823.77 1584.05 1820.05 1584.05 1815.45C1584.05 1810.86 1587.77 1807.13 1592.37 1807.13C1596.96 1807.13 1600.69 1810.86 1600.69 1815.45Z"/><path fill="#F15846" d="M1646.44 1815.45C1646.44 1820.05 1642.72 1823.77 1638.12 1823.77C1633.53 1823.77 1629.8 1820.05 1629.8 1815.45C1629.8 1810.86 1633.53 1807.13 1638.12 1807.13C1642.72 1807.13 1646.44 1810.86 1646.44 1815.45Z"/><path fill="#F15846" d="M1692.2 1815.45C1692.2 1820.05 1688.48 1823.77 1683.88 1823.77C1679.29 1823.77 1675.56 1820.05 1675.56 1815.45C1675.56 1810.86 1679.29 1807.13 1683.88 1807.13C1688.48 1807.13 1692.2 1810.86 1692.2 1815.45Z"/><path fill="#F15846" d="M1737.96 1815.45C1737.96 1820.05 1734.23 1823.77 1729.64 1823.77C1725.05 1823.77 1721.32 1820.05 1721.32 1815.45C1721.32 1810.86 1725.05 1807.13 1729.64 1807.13C1734.23 1807.13 1737.96 1810.86 1737.96 1815.45Z"/><path fill="#F15846" d="M1783.71 1815.45C1783.71 1820.05 1779.99 1823.77 1775.39 1823.77C1770.8 1823.77 1767.07 1820.05 1767.07 1815.45C1767.07 1810.86 1770.8 1807.13 1775.39 1807.13C1779.99 1807.13 1783.71 1810.86 1783.71 1815.45Z"/><path fill="#F15846" d="M1829.47 1815.45C1829.47 1820.05 1825.75 1823.77 1821.15 1823.77C1816.56 1823.77 1812.83 1820.05 1812.83 1815.45C1812.83 1810.86 1816.56 1807.13 1821.15 1807.13C1825.75 1807.13 1829.47 1810.86 1829.47 1815.45Z"/><path fill="#F15846" d="M1875.23 1815.45C1875.23 1820.05 1871.5 1823.77 1866.91 1823.77C1862.31 1823.77 1858.59 1820.05 1858.59 1815.45C1858.59 1810.86 1862.31 1807.13 1866.91 1807.13C1871.5 1807.13 1875.23 1810.86 1875.23 1815.45Z"/><path fill="#EFCB96" d="M714.287 1256.45C684.22 1280.5 639.12 1294.03 620.328 1297.79C622.834 1329.11 632.355 1389.49 650.395 1380.47C668.435 1371.45 720.551 1349.15 744.354 1339.13C746.86 1301.55 744.354 1232.39 714.287 1256.45Z"/><path fill="#3E3D3D" d="M736.84 1173.75C700.759 1197.81 721.806 1304.04 736.84 1354.16L778.182 1403.02L939.792 1485.7L1037.51 1354.16C1052.54 1282.75 1058.56 1130.91 962.342 1094.83C866.128 1058.75 812.007 1117.38 796.974 1151.2C791.963 1148.7 772.92 1149.7 736.84 1173.75Z"/><path fill="#EFCB96" d="M812.011 1504.5L804.494 1609.73L902.211 1677.38C941.048 1662.35 1016.47 1627.77 1007.45 1609.73C998.425 1591.7 991.159 1532.06 988.653 1504.5C1012.71 1480.45 1018.72 1426.83 1018.72 1403.02C1060.06 1354.17 1030 1309.06 1018.72 1312.82C1009.7 1315.83 1002.43 1351.66 999.928 1369.2C997.423 1339.13 989.405 1275.24 977.378 1260.2C965.352 1245.17 954.828 1271.48 951.07 1286.51C947.311 1280.25 936.788 1264.71 924.761 1252.69C909.728 1237.65 834.561 1241.41 804.494 1267.72C780.441 1288.77 774.427 1351.66 774.427 1380.47L763.152 1324.1C758.141 1315.33 745.864 1306.81 736.844 1342.89C727.824 1378.97 750.624 1398.01 763.152 1403.02C766.159 1445.12 796.977 1488.21 812.011 1504.5Z"/><path fill="#F15846" d="M560.199 1891.61C590.266 2093.05 580.243 2437.82 567.715 2628.24H1259.25L1300.6 2519.25H1394.55C1406.58 2453.1 1405.83 2281.22 1405.83 2165.97C1390.8 1978.05 1368.25 1741.27 1289.32 1666.1C1232.94 1612.41 1090.13 1592.19 1014.96 1579.66C1002.43 1600.96 962.343 1643.55 902.209 1643.55C842.075 1643.55 804.492 1600.96 793.217 1579.66C786.953 1582.17 761.646 1587.93 710.533 1590.94C646.641 1594.69 541.407 1579.66 511.34 1572.14C474.696 1562.98 406.106 1549.59 428.656 1534.56C446.697 1522.53 589.013 1434.34 657.916 1391.74L627.849 1282.75C545.165 1305.3 360.254 1358.67 282.08 1391.74C184.363 1433.09 180.604 1500.74 188.121 1549.59C195.638 1598.45 364.764 1756.3 428.656 1793.89C479.77 1823.95 537.649 1871.56 560.199 1891.61Z"/><path fill="#EFCB96" d="M1286.82 2556.83C1271.52 2579.79 1249.72 2600.77 1236.57 2611.95C1232.96 2615.03 1231.45 2619.98 1232.95 2624.48H1268.03L1275.55 2616.97L1273.67 2624.48H1374.75C1381.1 2586.77 1385.44 2536.42 1388.3 2519.25L1298.1 2515.49L1286.82 2556.83Z"/><path fill="#3E3D3D" fill-rule="evenodd" d="M1200.09 2018.8C1197.08 1989.85 1194.18 1961.97 1191.63 1933.62L1206.61 1932.27C1209.14 1960.47 1212.03 1988.26 1215.04 2017.15C1227.03 2132.46 1240.84 2265.3 1241.12 2511.73H1394.55V2526.77H1226.09V2519.25C1226.09 2268.82 1212.2 2135.21 1200.09 2018.8Z" clip-rule="evenodd"/><path fill="#F1F1F1" d="M2372.99 1226.38C2372.99 1205.62 2389.82 1188.79 2410.57 1188.79H2778.89C2799.65 1188.79 2816.47 1205.62 2816.47 1226.38V1594.7C2816.47 1615.45 2799.65 1632.28 2778.89 1632.28H2410.57C2389.82 1632.28 2372.99 1615.45 2372.99 1594.7V1226.38Z"/><path fill="#F15846" d="M679.928 879.895C668.591 884.236 655.582 878.619 652.816 866.798C651.046 859.235 650.223 852.42 650.347 846.353C650.578 835.118 654.288 821.493 661.476 805.478C668.738 789.294 672.983 778.145 674.213 772.031C676.13 762.69 675.416 753.652 672.071 744.914C667.642 733.347 661.459 725.626 653.522 721.751C645.657 717.708 636.335 717.749 625.556 721.876C615.256 725.819 608.087 732.021 604.048 740.48C603.27 742.106 602.644 743.768 602.169 745.467C598.714 757.83 594.245 771.958 582.256 776.548C570.174 781.173 556.117 775.021 554.947 762.137C553.752 748.984 556.13 736.609 562.08 725.013C571.479 706.882 587.856 693.346 611.211 684.405C635.284 675.189 656.43 674.289 674.649 681.705C692.988 689.076 706.468 704.021 715.089 726.54C722.769 746.599 721.228 769.834 710.467 796.246L696.921 827.041C694.385 834.15 693.686 842.194 694.823 851.173C696.334 863.101 691.157 875.596 679.928 879.895ZM678.324 946.33C675.544 939.069 675.522 932.376 678.258 926.249C680.946 920 686.062 915.431 693.608 912.542C701.273 909.607 708.216 909.63 714.438 912.61C720.612 915.466 725.042 920.402 727.727 927.416C730.318 934.184 730.33 940.67 727.761 946.874C725.193 953.078 719.956 957.693 712.052 960.719C704.147 963.745 697.168 963.807 691.113 960.904C685.178 957.956 680.915 953.098 678.324 946.33Z"/><path fill="#F15846" d="M558.109 990.293C551.356 996.812 540.399 996.753 534.854 989.179C531.305 984.333 528.657 979.733 526.909 975.379C523.673 967.315 522.189 956.498 522.457 942.927C522.726 929.214 522.373 919.997 521.397 915.274C519.934 908.048 516.69 901.832 511.666 896.628C505.014 889.738 498.278 886.116 491.457 885.761C484.638 885.264 478.017 888.115 471.597 894.313C465.461 900.236 462.237 906.819 461.924 914.06C461.862 915.452 461.92 916.824 462.096 918.177C463.379 928.02 464.475 939.425 457.334 946.319C450.137 953.267 438.273 953.144 433.541 944.33C428.71 935.333 426.657 925.809 427.381 915.757C428.582 900.011 436.138 885.423 450.049 871.993C464.388 858.15 479.162 851.11 494.37 850.873C509.649 850.567 523.764 857.121 536.714 870.535C548.248 882.483 554.184 899.482 554.521 921.532L554.203 947.542C554.55 953.368 556.487 959.303 560.014 965.348C564.7 973.378 564.798 983.835 558.109 990.293ZM577.074 1038.05C572.899 1033.72 570.857 1028.97 570.949 1023.78C570.97 1018.52 573.228 1013.72 577.723 1009.38C582.288 1004.97 587.236 1002.89 592.564 1003.13C597.822 1003.29 602.468 1005.46 606.501 1009.64C610.393 1013.67 612.364 1018.28 612.415 1023.47C612.465 1028.66 610.135 1033.53 605.427 1038.08C600.719 1042.62 595.771 1044.78 590.585 1044.55C585.469 1044.25 580.966 1042.08 577.074 1038.05Z"/><path fill="#F15846" d="M853.381 863.533C844.202 861.569 838.136 852.445 841.324 843.616C843.364 837.967 845.703 833.202 848.34 829.322C853.224 822.136 861.371 814.866 872.781 807.514C884.309 800.082 891.759 794.644 895.133 791.198C900.312 785.951 903.659 779.79 905.172 772.716C907.176 763.351 906.422 755.74 902.909 749.883C899.515 743.947 893.454 740.046 884.727 738.178C876.388 736.394 869.127 737.393 862.943 741.175C861.754 741.901 860.648 742.714 859.624 743.616C852.174 750.175 843.322 757.45 833.616 755.373C823.834 753.28 817.314 743.367 821.985 734.522C826.754 725.491 833.51 718.471 842.255 713.461C855.989 705.668 872.311 703.795 891.219 707.841C910.709 712.012 924.797 720.34 933.482 732.826C942.265 745.333 944.705 760.702 940.804 778.934C937.329 795.174 926.538 809.588 908.431 822.175L886.671 836.43C882.032 839.97 878.188 844.89 875.142 851.19C871.094 859.56 862.472 865.478 853.381 863.533ZM824.343 905.925C825.601 900.047 828.407 895.698 832.763 892.879C837.139 889.96 842.382 889.155 848.491 890.462C854.696 891.79 859.188 894.731 861.966 899.284C864.764 903.738 865.556 908.805 864.341 914.484C863.169 919.963 860.443 924.173 856.163 927.112C851.883 930.051 846.544 930.836 840.144 929.467C833.744 928.097 829.194 925.196 826.492 920.763C823.887 916.35 823.171 911.404 824.343 905.925Z"/><path fill="#3E3D3D" fill-rule="evenodd" d="M2598.49 1307.07C2573 1307.07 2548.06 1331.95 2548.06 1368.32C2548.06 1369.22 2548.07 1381.6 2548.1 1393.99C2548.1 1396.67 2548.11 1399.36 2548.12 1401.92H2648.89C2648.91 1386.05 2648.92 1369.11 2648.92 1368.32C2648.92 1331.95 2623.97 1307.07 2598.49 1307.07ZM2681.61 1437.31C2679.93 1442.95 2677.41 1448.12 2673.76 1452.61C2666.38 1461.68 2656.58 1465.27 2647.7 1466.56C2639.35 1467.77 2630.3 1467.16 2622.61 1466.56C2621.27 1466.46 2619.95 1466.35 2618.64 1466.24C2611.81 1465.69 2605.31 1465.16 2598.49 1465.16C2591.67 1465.16 2585.17 1465.69 2578.33 1466.24C2577.02 1466.35 2575.7 1466.46 2574.37 1466.56C2566.68 1467.16 2557.62 1467.77 2549.28 1466.56C2540.39 1465.27 2530.59 1461.68 2523.21 1452.61C2516.21 1444.01 2513.37 1432.87 2512.66 1420.77C2512.51 1418.25 2512.46 1369.57 2512.46 1368.32C2512.46 1317.38 2548.61 1271.48 2598.49 1271.48C2648.37 1271.48 2684.51 1317.38 2684.51 1368.32C2684.51 1369.25 2684.5 1391.86 2684.47 1409.36C2684.46 1418.08 2684.44 1425.61 2684.42 1428.52C2684.42 1428.54 2684.42 1428.58 2684.42 1428.62C2684.42 1429.01 2684.41 1430.1 2684.37 1430.8C2684.36 1430.88 2684.33 1431.43 2684.23 1432.13C2684.15 1432.59 2683.84 1434.06 2683.56 1435.05C2683.3 1435.64 2682.62 1436.44 2681.61 1437.31Z" clip-rule="evenodd"/><path fill="#F15846" d="M2494.66 1412.69C2494.66 1400.23 2504.76 1390.14 2517.21 1390.14H2679.76C2692.22 1390.14 2702.31 1400.23 2702.31 1412.69V1533.71C2702.31 1546.16 2692.22 1556.26 2679.76 1556.26H2517.21C2504.76 1556.26 2494.66 1546.16 2494.66 1533.71V1412.69Z"/><path fill="#3E3D3D" fill-rule="evenodd" d="M2613.25 1480.61C2620.44 1475.83 2625.18 1467.65 2625.18 1458.36C2625.18 1443.62 2613.23 1431.66 2598.49 1431.66C2583.74 1431.66 2571.79 1443.62 2571.79 1458.36C2571.79 1467.65 2576.53 1475.83 2583.73 1480.61C2583.68 1481.09 2583.66 1481.59 2583.66 1482.08V1499.88C2583.66 1508.07 2590.3 1514.71 2598.49 1514.71C2606.68 1514.71 2613.32 1508.07 2613.32 1499.88V1482.08C2613.32 1481.59 2613.29 1481.09 2613.25 1480.61Z" clip-rule="evenodd"/><path fill="#F1F1F1" d="M2666.57 1932.12C2673.67 2013.76 2631.07 2081.51 2608.89 2105.17C2459.8 1984.48 2517.19 1844.86 2564.52 1790.13C2595.58 1803.44 2659.47 1850.48 2666.57 1932.12Z"/><path fill="#F1F1F1" d="M2728.69 2211.66C2689.65 2243.61 2620.72 2245.68 2591.14 2242.72C2637.29 2097.18 2752.36 2075.59 2804.13 2082.98C2795.25 2112.56 2767.74 2179.71 2728.69 2211.66Z"/><path fill="#F1F1F1" d="M2542.33 2122.92C2581.38 2165.52 2591.14 2211.67 2591.14 2229.41C2452.7 2243.61 2418.09 2149.55 2418.09 2100.74C2443.23 2090.38 2503.28 2080.33 2542.33 2122.92Z"/><path fill="#fff" fill-rule="evenodd" d="M2602.69 1935.52C2613.31 1991.71 2627.16 2064.95 2607.37 2159.95C2596.09 2214.1 2594.26 2295.88 2598.6 2330.54L2583.68 2332.4C2579.14 2296.07 2581.04 2212.63 2592.65 2156.89C2611.8 2064.97 2598.52 1994.57 2587.93 1938.43C2586.45 1930.57 2585.02 1922.99 2583.73 1915.67L2598.54 1913.08C2599.8 1920.24 2601.21 1927.71 2602.69 1935.52Z" clip-rule="evenodd"/><path fill="#F1F1F1" d="M2418.09 2327.03H2755.32L2706.51 2611H2471.34L2418.09 2327.03Z"/><path fill="#3E3D3D" fill-rule="evenodd" d="M-2.29492 2624.49C-2.29492 2620.34 1.07043 2616.97 5.2218 2616.97H2993.12C2997.27 2616.97 3000.63 2620.34 3000.63 2624.49C3000.63 2628.64 2997.27 2632 2993.12 2632H5.2218C1.07043 2632 -2.29492 2628.64 -2.29492 2624.49Z" clip-rule="evenodd"/></g><defs><clipPath id="a"><rect width="3000" height="3000" fill="#fff" transform="translate(.635)"/></clipPath></defs></svg>