<svg xmlns="http://www.w3.org/2000/svg" viewBox="0 0 1364 960"><linearGradient id="a" x1="1087.607" x2="1226.825" y1="371.66" y2="371.66" gradientTransform="rotate(8.15 1979.97 -1168.874)" gradientUnits="userSpaceOnUse"><stop offset="0" stop-color="#ff8f5c"/><stop offset="1" stop-color="#ffdd4f"/></linearGradient><path fill="url(#a)" d="M908.708 270.766c2.737-.345 5.022-2.561 5.89-5.176.868-2.615.466-5.531-.637-8.056-1.104-2.525-2.862-4.709-4.741-6.726-3.111-3.338-6.753-6.374-10.965-8.026a130.444 130.444 0 0 1 19.091-6.222c.593-.144 1.188-.277 1.782-.413l2.393 14.13c.532 3.142 1.096 6.372 2.764 9.089 1.668 2.718 4.725 4.836 7.891 4.437 2.737-.345 5.022-2.561 5.89-5.176.868-2.615.466-5.531-.637-8.056-1.104-2.525-2.862-4.709-4.741-6.726-3.208-3.443-6.982-6.567-11.365-8.179a133.19 133.19 0 0 1 22.126-2.757l2.975 14.223c.653 3.12 1.34 6.325 3.111 8.977 1.771 2.652 4.907 4.652 8.056 4.132 2.722-.45 4.92-2.752 5.687-5.398.767-2.646.253-5.545-.946-8.025-1.199-2.481-3.04-4.596-4.996-6.54-3.131-3.111-6.748-5.926-10.85-7.454 5.383-.092 10.771.137 16.126.708 1.586.169 3.165.378 4.742.606l3.541 14.527c.755 3.096 1.547 6.278 3.405 8.87 1.857 2.592 5.057 4.488 8.187 3.865 2.706-.539 4.827-2.912 5.506-5.581.68-2.67.071-5.55-1.209-7.99-1.281-2.44-3.19-4.494-5.209-6.372-2.884-2.684-6.148-5.114-9.766-6.598a125.717 125.717 0 0 1 15.728 3.917l9.781 10.81c2.14 2.365 4.353 4.786 7.222 6.184 2.869 1.397 6.587 1.545 9.042-.49 2.123-1.76 2.857-4.854 2.182-7.526-.675-2.671-2.583-4.915-4.872-6.453-2.29-1.538-4.947-2.437-7.618-3.13-4.921-1.277-10.198-1.889-15.069-.536-.017-.007-.03-.015-.047-.02a126.678 126.678 0 0 0-16.747-4.135c4.04-.704 7.902-2.547 11.408-4.739 2.338-1.462 4.603-3.117 6.323-5.271 1.72-2.154 2.864-4.866 2.703-7.616-.161-2.75-1.793-5.481-4.348-6.523-2.955-1.205-6.457.051-8.772 2.245-2.315 2.193-3.697 5.167-5.025 8.065l-6.069 13.238a130.964 130.964 0 0 0-21.062-1.346c3.989-1.651 7.473-4.524 10.476-7.676 1.902-1.996 3.684-4.16 4.815-6.673 1.131-2.512 1.565-5.424.725-8.048-.839-2.624-3.1-4.866-5.833-5.241-3.162-.435-6.242 1.65-7.939 4.348-1.698 2.699-2.297 5.922-2.863 9.058l-2.587 14.322c-.221.009-.443.013-.665.023-7.261.333-14.49 1.26-21.598 2.755 4.197-2.405 7.432-6.317 10.006-10.45 1.457-2.339 2.763-4.819 3.362-7.508.598-2.69.432-5.628-.922-8.029s-4.023-4.138-6.776-3.954c-3.184.214-5.777 2.878-6.892 5.864-1.115 2.986-1.048 6.264-.966 9.449l.383 15.018-.296.068-.103-.098.02.117a132.801 132.801 0 0 0-20.217 6.329c2.616-3.469 4.196-7.729 5.221-11.992.656-2.73 1.121-5.548.835-8.341-.286-2.794-1.39-5.583-3.469-7.471-2.079-1.887-5.214-2.713-7.813-1.651-3.007 1.228-4.656 4.637-4.774 7.883-.118 3.246 1 6.395 2.101 9.451l4.694 13.02.07.414a126.56 126.56 0 0 0-20.453 11.224c-.682.461-.092 1.614.599 1.146a126.301 126.301 0 0 1 20.078-11.054l2.27 13.405c.532 3.142 1.096 6.372 2.764 9.089 1.663 2.716 4.719 4.835 7.886 4.436z"/><linearGradient id="b" x1="352.108" x2="436.882" y1="290.603" y2="540.623" gradientUnits="userSpaceOnUse"><stop offset="0" stop-color="#ffca59"/><stop offset="1" stop-color="#ff8f5c"/></linearGradient><path fill="url(#b)" d="M390.13 546.754c-1.756-3.93 1.027-8.733 4.963-10.452 3.936-1.72 8.52-1.056 12.634.232 6.654 2.084 12.264 5.397 17.972 9.118a286.044 286.044 0 0 1-9.853-16.688 294.418 294.418 0 0 1-5.895-11.369c-8.865 3.891-18.906 5.071-28.428 3.311-3.609-.668-7.564-2.097-9.052-5.451-1.74-3.919 1.044-8.722 4.968-10.449 3.925-1.727 8.488-1.076 12.582.2 6.873 2.142 12.623 5.612 18.524 9.484-5.67-11.88-10.507-24.167-14.241-36.78-9.254 2.317-19.191 1.862-28.179-1.339-3.458-1.231-7.136-3.269-8.075-6.817-1.096-4.145 2.414-8.446 6.563-9.528 4.148-1.083 8.551.283 12.391 2.193 6.221 3.093 11.213 7.24 16.24 11.804-3.727-13.358-6.368-27.554-4.921-41.388.03-.288.073-.575.105-.862-9.588 1.047-19.484-.818-28.018-5.318-3.247-1.712-6.597-4.255-7.019-7.9-.493-4.26 3.595-8.016 7.856-8.494 4.261-.479 8.423 1.501 11.95 3.939 6.216 4.295 10.815 9.615 15.522 15.382 2.108-15.934 7.163-31.547 8.72-47.527-9.742 1.167-19.83-.679-28.511-5.257-3.246-1.712-6.597-4.254-7.018-7.9-.493-4.259 3.595-8.015 7.856-8.494 4.261-.479 8.423 1.501 11.95 3.939 6.383 4.41 11.061 9.902 15.902 15.849.318-4.001.405-8.025.149-12.086-.517-8.223-2.79-16.255-6.344-23.763-9.269 3.854-19.743 4.76-29.531 2.523-3.577-.818-7.469-2.412-8.816-5.827-1.573-3.988 1.41-8.671 5.403-10.231 3.994-1.56 8.526-.718 12.562.728 7.402 2.653 13.398 6.83 19.699 11.4-5.987-11.997-15.238-22.566-25.825-30.283-8.773 2.446-18.238 2.398-26.973-.194-3.519-1.044-7.301-2.883-8.428-6.375-1.316-4.081 1.958-8.564 6.043-9.867 4.085-1.303 8.555-.174 12.491 1.526 6.279 2.713 11.423 6.509 16.603 10.717.245.035.498.126.747.299 9.158 6.366 16.965 14.593 23.127 23.874a100.611 100.611 0 0 1 3.861 6.307c-1.106-8.791.207-17.885 3.82-25.979 1.496-3.352 3.814-6.861 7.424-7.52 4.218-.771 8.233 3.063 8.99 7.283.757 4.221-.948 8.504-3.149 12.184-4.107 6.863-9.478 11.994-15.297 17.389 2.341 4.628 4.249 9.469 5.439 14.51 1.803 7.634 2.064 15.295 1.479 22.941 2.974-8.642 8.41-16.432 15.537-22.159 2.861-2.299 6.525-4.364 10.038-3.303 4.104 1.24 5.927 6.483 4.674 10.584-1.253 4.1-4.724 7.133-8.362 9.402-6.972 4.348-14.298 6.46-22.175 8.666-1.33 12.582-4.706 25.111-7.065 37.405-.742 3.87-1.37 7.731-1.787 11.607 2.751-9.536 8.482-18.193 16.211-24.421 2.858-2.303 6.519-4.372 10.034-3.316 4.106 1.234 5.936 6.476 4.688 10.578-1.247 4.102-4.715 7.14-8.35 9.413-7.125 4.456-14.623 6.574-22.703 8.848-.399 4.136-.535 8.292-.264 12.497.496 7.691 1.866 15.317 3.692 22.797.485 1.989 1.008 3.97 1.557 5.943 1.66-8.845 5.801-17.223 11.867-23.876 2.472-2.712 5.775-5.316 9.409-4.809 4.247.593 6.855 5.493 6.249 9.737-.606 4.245-3.569 7.776-6.815 10.578-5.996 5.178-12.638 8.352-19.778 11.615 3.65 12.323 8.468 24.324 14.022 35.913-.588-9.374 1.578-18.914 6.209-27.088 1.81-3.193 4.453-6.465 8.109-6.776 4.272-.363 7.903 3.836 8.252 8.109.35 4.273-1.755 8.374-4.298 11.826-4.827 6.551-10.785 11.192-17.219 16.099.749 1.53 1.506 3.056 2.277 4.572 4.239 8.318 8.871 16.476 13.941 24.349-.433-9.138 1.742-18.396 6.254-26.358 1.809-3.193 4.452-6.464 8.109-6.776 4.272-.363 7.903 3.837 8.253 8.11.35 4.273-1.756 8.374-4.3 11.826-4.694 6.371-10.458 10.936-16.688 15.695 5.886 8.906 12.349 17.424 19.468 25.36 1.482 1.654-1.183 3.839-2.663 2.189-7.189-8.014-13.698-16.63-19.634-25.626-8.91 3.899-19.018 5.069-28.61 3.277-3.622-.677-7.597-2.118-9.101-5.481z"/><linearGradient id="c" x1="-48.041" x2="140.754" y1="221.321" y2="221.321" gradientTransform="rotate(-16.321 1525.047 -766.523)" gradientUnits="userSpaceOnUse"><stop offset="0" stop-color="#326ab3"/><stop offset="1" stop-color="#003780"/></linearGradient><path fill="url(#c)" d="M484.346 605.251c2.235 6.747 1.869 14.731 1.869 14.731s1.702 19.867-2.028 37.396c-1.364 6.189-3.362 15.681-9.905 25.624l-2.177 3.066c-.742.999-1.517 1.952-2.382 2.83-.615.695-1.228 1.389-1.875 2.038-.323.376-.637.712-.991 1.042-10.962 11.142-23.702 15.588-28.64 17.131-4.771 1.386-22.041 5.92-41.238-.76-11.874-4.149-26.925-13.267-25.333-21.059.392-1.48 1.256-2.743.887-4.683-.593-3.88-4.991-5.432-10.62-8.046-10.434-4.817-15.683-7.149-17.461-10.827-.874-1.675-1.299-5.993-2.183-14.535-.62-5.93-.424-6.284-1.074-7.316-3.394-5.022-11.845-.276-21.216-3.977-7.166-2.893-13.455-10.146-13.767-17.808-.11-4.514 1.913-5.679 2.705-14.184.546-6.011.764-9.116-.271-11.971-4.052-11.099-23.645-6.864-26.171-16.308-1.241-4.669 2.198-10.657 5.476-16.387 3.431-5.807 5.495-6.581 6.612-9.081 6.561-14.234-38.973-39.416-35.338-45.759 2.791-4.812 36.686-1.626 56.725 9.034 3.077 1.712 8.996 5.201 16.346 3.647 8.489-1.722 10.352-8.38 16.199-8.345 2.943.091 4.565 1.78 18.535 18.143 4.433 5.244 7.492 8.897 10.706 8.019 3.147-.83 4.039-5.41 8.541-6.494.704-.235 2.281-.477 4.785.357 8.349 2.589 15.252 12.934 18.525 18.079 6.592 10.258 9.059 16.027 11.757 15.351 2.652-.783 2.073-6.706 6.585-9.166 3.235-1.666 7.213-.543 9.57.713 3.324 1.812 4.486 5.029 6.968 14.892 2.564 10.118 2.612 11.766 4.179 17.072 2.547 9.185 4.9 17.528 8.873 17.497 3.591-.031 4.801-6.669 11.398-8.725.279-.098 5.33-1.584 9.57.714 2.823 1.51 4.744 4.663 5.859 8.055z"/><linearGradient id="d" x1="313.415" x2="468.388" y1="617.005" y2="617.005" gradientUnits="userSpaceOnUse"><stop offset="0" stop-color="#b0deff"/><stop offset="1" stop-color="#82baff"/></linearGradient><path fill="url(#d)" d="M465.502 621.943c3.611 5.136-.083 11.538-1.818 16.667a93.297 93.297 0 0 0-3.717 14.975c-1.567 9.691-1.524 19.59-.027 29.287-.03-.027-.056-.055-.086-.083-8.234-7.898-17.178-15.137-25.833-22.412-8.922-7.5-17.753-15.208-25.537-23.926-6.485-7.284-11.7-15.323-16.635-23.601-.004-.004-.006-.009-.009-.014 1.239-10.767 6.618-20.307 8.76-30.824 1.876-9.214.081-20.299-8.964-25.108-.805-.428-1.366.871-.564 1.298 9.564 5.086 9.92 17.27 7.447 26.473-2.376 8.848-6.408 17.14-7.815 26.233l-.026-.042-1.731-2.942c-4.689-8.038-9.565-16.044-16.177-22.638-4.553-4.594-9.496-8.761-14.549-12.744.574-10.144-1.796-20.799-7.318-29.391-.492-.767-1.633.071-1.142.835 5.146 8.007 7.448 17.964 7.08 27.453-.26-.215-.526-.396-.787-.612a442.513 442.513 0 0 0-37.989-26.565c-1.146-.705-2.309-1.432-3.479-2.119-.759-.462-1.639.638-.88 1.099 12.507 7.508 24.557 15.876 36.199 24.648 6.183 4.664 12.263 9.475 18.016 14.7 1.31 1.216 2.581 2.425 3.76 3.702l.005.005c-4.546 2.797-9.95 1.22-14.781.144-4.255-.948-8.598-1.306-12.95-.991a44.675 44.675 0 0 0-23.78 9.003c-.723.552.111 1.695.836 1.142 7.275-5.549 16.196-8.648 25.345-8.843 4.713-.101 9.113.877 13.687 1.85 4.28.911 8.778 1.213 12.617-1.234.015-.01.01-.026.025-.037l.008.008c3.791 4.03 7.108 8.372 10.137 13.134 6.152 9.703 11.254 20.033 18.216 29.213 6.779 8.928 14.855 16.802 23.247 24.199.712.636 1.446 1.256 2.179 1.877a.055.055 0 0 0 .008.006c-11.712 3.06-24.065 6.169-36.118 3.134a32.878 32.878 0 0 1-7.985-3.161c-2.431-1.357-4.728-3.01-7.378-3.93-4.952-1.717-9.997-.14-14.738 1.497-.863.298-.358 1.621.502 1.323 2.711-.936 5.468-1.884 8.345-2.127 2.952-.249 5.606.51 8.197 1.902 2.544 1.366 4.904 3.003 7.569 4.139 2.4 1.024 4.926 1.756 7.488 2.243 11.742 2.231 23.552-.804 34.875-3.763a.555.555 0 0 0 .361-.291l.018.015c10.916 9.408 22.393 18.335 32.679 28.415l.095.095c.075.109.143.205.257.255.01.012.023.024.034.035 2.127 2.091 4.208 4.216 6.175 6.424.354-.33.669-.665.991-1.042-2.023-2.237-4.121-4.385-6.264-6.499a.234.234 0 0 0-.016-.015c-1.882-10.88-1.84-22.031.194-32.889 1.037-5.534 2.618-10.914 4.607-16.179 1.735-4.594 3.377-9.835.276-14.246-.524-.741-1.666.095-1.142.84z"/><linearGradient id="e" x1="822.402" x2="988.815" y1="135.59" y2="135.59" gradientUnits="userSpaceOnUse"><stop offset="0" stop-color="#326ab3"/><stop offset="1" stop-color="#003780"/></linearGradient><path fill="url(#e)" d="M838.689 104.732c1.329 12.478 19.307 31.809 15.23 43.824-14.667-1.283-9.249-21.982-15.213-32.097-6.613-8.86-20.126 20.045-15.276 35.662 3.438 12.912 20.547 12.848 40.653 31.513 17.413 15.708 15.93 23.226 27.823 27.566 21.763 7.936 48.624-9.204 47.891-12.073-.296-1.159-4.916.541-15.246-1.15-1.072.64-40.338-10.861-24.48-17.287 18.385-2.37 25.088 19.703 47.208 12.652 16.584-5.294 23.087-29.423 21.515-30.437-6.352 11.358-39.831 10.056-50.884 1.165-6.189-5.879.808-7.125 8.468-6.067 25.66.141 39.173 1.995 53.714-12.722 17.823-18.041 2.286-40.733 5.434-69.114 0 0-31.244-15.83-53.328-7.765-21.254 7.762-9.762 30.391-17.985 43.336-3.012 5.952-11.541 5.236-14.34.204-6.414-7.757-3.509-20.717-1.312-30.04 3.648-15.444 8.439-19.949 6.1-22.479-5.969-6.904-32.966 11.104-31.987 25.316-5.88 15.942 16.514 41.88 4.783 56.287-13.07-3.25-18.338-39.74-15.342-53.924 2.428-7.285 7.159-11.352 6.216-12.374-8.17 1.456-30.083 18.717-29.642 30.004z"/><linearGradient id="f" x1="833.135" x2="964.087" y1="142.916" y2="142.916" gradientUnits="userSpaceOnUse"><stop offset="0" stop-color="#b0deff"/><stop offset="1" stop-color="#82baff"/></linearGradient><path fill="url(#f)" d="M833.41 132.847c-.595 3.872-.216 7.848 1.053 11.55 1.228 3.595 3.324 6.755 5.95 9.475 2.886 2.977 6.235 5.429 9.501 7.963 3.533 2.752 6.93 5.689 10.114 8.84 1.434 1.427 2.912 2.853 4.18 4.431 1.057 1.314 1.973 2.895 1.66 4.644-.003.02.011.03.007.049-.225.217-.437.445-.669.657a47.24 47.24 0 0 1-2.374 2.082c.121.089.224.187.334.29a50.568 50.568 0 0 0 4.195-3.904c.013-.002.025-.004.03-.011.704-.423 1.512-.703 2.315-.901.752-.19 1.622-.36 2.381-.13 1.131.351 2.14 1.136 3.063 1.859.918.73 1.827 1.487 2.714 2.259 6.242 5.434 11.778 11.738 18.697 16.357 5.689 3.792 12.39 6.489 19.335 5.898.28-.023.219-.462-.073-.436-4.045.339-8.082-.464-11.836-1.979-7.347-2.965-13.244-8.363-18.918-13.752-3.14-2.988-6.254-6.012-9.658-8.702-1.254-.987-2.722-2.144-4.4-2.033-.938.055-1.92.305-2.821.682 3.612-3.972 6.568-8.482 9.517-12.953.139-.204.277-.42.415-.624l.013-.002c3.498-1.781 7.461-2.366 11.36-2.134 7.95.465 14.914 4.352 21.57 8.406 1.82 1.109 3.643 2.231 5.484 3.312 1.724 1.017 3.48 2.035 5.344 2.803 3.172 1.294 6.917 1.795 10.031.06.244-.137.074-.547-.175-.402-3.916 2.185-8.464.71-12.151-1.237-7.322-3.876-13.969-9.148-21.915-11.789-6.101-2.027-13.159-2.47-19.099.281 2.772-4.185 5.629-8.351 9.115-11.99 1.91-1.986 4.005-3.749 6.218-5.359.017-.009.037-.006.06-.022.016-.021.038-.037.059-.066 2.009-1.453 4.107-2.787 6.247-4.046 3.564-2.094 7.222-4.018 10.811-6.071 4.311-.581 8.708-.06 12.958.736 7.629 1.422 15.152 4.222 23.012 3.888 6.994-.303 14.671-3.824 17.009-10.899.091-.272-.318-.431-.409-.158-1.297 3.935-4.462 6.869-8.154 8.616-7.144 3.377-15.239 1.874-22.605.109-6.778-1.627-13.844-3.532-20.873-2.839.458-.265.922-.525 1.385-.797 4.545-2.728 8.76-5.885 12.603-9.534 7.874-7.478 14.152-16.413 20.341-25.273.167-.227-.188-.488-.355-.261a609.85 609.85 0 0 1-2.272 3.252c-5.996 8.508-12.28 16.992-20.135 23.892 1.315-2.501 1.488-5.502 1.672-8.266.229-3.463.644-7.479 3.619-9.754.226-.173-.047-.516-.273-.343-2.79 2.126-3.475 5.824-3.722 9.12-.259 3.43-.241 7.273-2.38 10.151-.01.014.004.024-.007.039l-.005.007c-4.017 3.379-8.429 6.15-12.998 8.718-4.378 2.456-8.835 4.768-13.05 7.509-.401.262-.8.538-1.195.806 2.392-3.251 2.961-7.624 2.521-11.59-.509-4.587-2.507-8.846-4.412-12.993-1.894-4.118-3.549-8.277-4.592-12.687a57.653 57.653 0 0 1-.105-25.927c.071-.276-.377-.321-.436-.047a57.47 57.47 0 0 0-1.418 14.152 57.874 57.874 0 0 0 1.707 12.655c1.079 4.273 2.726 8.295 4.557 12.29 1.914 4.165 3.883 8.447 4.31 13.071.393 4.27-.441 9.061-3.645 12.153-3.231 2.37-6.174 5.062-8.766 8.155-3.544 4.253-6.475 8.966-9.538 13.561l-.793 1.167c.391-3.016-.115-6.134-1.118-8.994-1.074-3.076-2.811-5.875-4.528-8.626-1.789-2.847-3.536-5.707-5.023-8.727a74.353 74.353 0 0 1-6.263-18.478c-.056-.282-.499-.214-.438.061a75.488 75.488 0 0 0 2.824 10.348 74.49 74.49 0 0 0 3.767 8.843c1.487 2.931 3.208 5.707 4.949 8.486 1.735 2.786 3.468 5.636 4.482 8.778.942 2.913 1.36 6.077.783 9.108.002.012.014.011.009.018-2.343 3.408-4.841 6.7-7.742 9.631.102-1.566-.655-3.02-1.605-4.243-1.377-1.801-3.07-3.396-4.68-4.985a113.863 113.863 0 0 0-9.892-8.622c-3.338-2.587-6.782-5.087-9.69-8.167-2.645-2.799-4.684-6.05-5.831-9.726a23.9 23.9 0 0 1-.809-10.693c.041-.277-.395-.324-.435-.046z"/><path fill="#FFF" d="M828.781 921.538H505.556c-34.332 0-62.164-27.832-62.164-62.164V196.629h447.554v662.745c-.001 34.332-27.832 62.164-62.165 62.164z"/><linearGradient id="g" x1="667.168" x2="667.168" y1="-54.69" y2="951.369" gradientUnits="userSpaceOnUse"><stop offset="0" stop-color="#b0deff"/><stop offset="1" stop-color="#82baff"/></linearGradient><path fill="url(#g)" d="M852.886 135.59H481.427c-25.225 0-45.661 20.437-45.661 45.656v696.69c0 13.757 6.105 26.117 15.754 34.494.324.271.647.548.971.823 7.877 6.48 17.969 10.34 28.937 10.34h371.459c10.966 0 21.061-3.861 28.937-10.34 10.22-8.376 16.748-21.089 16.748-35.316v-696.69c-.001-25.22-20.463-45.657-45.686-45.657zm36.007 724.551c0 26.479-22.699 47.943-50.702 47.943H496.147c-28.001 0-50.703-21.463-50.703-47.943V226.444c0-16.469 14.119-29.815 31.536-29.815h380.38c17.416 0 31.532 13.346 31.532 29.815v633.697z"/><path fill="#FFF" d="M509.389 167.575c0 8.107-6.583 14.689-14.693 14.689s-14.692-6.583-14.692-14.689c0-8.113 6.583-14.696 14.692-14.696 8.11.001 14.693 6.584 14.693 14.696z"/><linearGradient id="h" x1="494.696" x2="494.696" y1="-54.69" y2="951.369" gradientUnits="userSpaceOnUse"><stop offset="0" stop-color="#b0deff"/><stop offset="1" stop-color="#82baff"/></linearGradient><path fill="url(#h)" d="M504.636 167.574c0 5.486-4.452 9.94-9.94 9.94-5.486 0-9.941-4.454-9.941-9.94 0-5.487 4.455-9.941 9.941-9.941 5.488-.001 9.94 4.453 9.94 9.941z"/><path fill="#FFF" d="M539.465 167.574c0 5.486-4.454 9.94-9.941 9.94s-9.94-4.454-9.94-9.94c0-5.487 4.452-9.941 9.94-9.941s9.941 4.453 9.941 9.941z"/><linearGradient id="i" x1="506.491" x2="506.491" y1="-54.691" y2="951.373" gradientUnits="userSpaceOnUse"><stop offset="0" stop-color="#b0deff"/><stop offset="1" stop-color="#82baff"/></linearGradient><path fill="url(#i)" d="M536.008 237.324h-59.034a3.33 3.33 0 0 1-3.329-3.329v-.42a3.33 3.33 0 0 1 3.329-3.329h59.034a3.33 3.33 0 0 1 3.329 3.329v.42a3.328 3.328 0 0 1-3.329 3.329z"/><linearGradient id="j" x1="506.491" x2="506.491" y1="-54.69" y2="951.37" gradientUnits="userSpaceOnUse"><stop offset="0" stop-color="#b0deff"/><stop offset="1" stop-color="#82baff"/></linearGradient><path fill="url(#j)" d="M536.008 256.578h-59.034a3.33 3.33 0 0 1-3.329-3.329v-.42a3.33 3.33 0 0 1 3.329-3.329h59.033a3.33 3.33 0 0 1 3.329 3.329v.42a3.326 3.326 0 0 1-3.328 3.329z"/><linearGradient id="k" x1="506.491" x2="506.491" y1="-54.691" y2="951.372" gradientUnits="userSpaceOnUse"><stop offset="0" stop-color="#b0deff"/><stop offset="1" stop-color="#82baff"/></linearGradient><path fill="url(#k)" d="M536.008 275.833h-59.034a3.33 3.33 0 0 1-3.329-3.329v-.42a3.33 3.33 0 0 1 3.329-3.329h59.034a3.33 3.33 0 0 1 3.329 3.329v.42a3.328 3.328 0 0 1-3.329 3.329z"/><linearGradient id="l" x1="667.168" x2="667.168" y1="-54.691" y2="951.37" gradientUnits="userSpaceOnUse"><stop offset="0" stop-color="#b0deff"/><stop offset="1" stop-color="#82baff"/></linearGradient><circle cx="667.168" cy="397.858" r="96.885" fill="url(#l)"/><circle cx="665.726" cy="370.453" r="37.612" fill="#FFF"/><path fill="#FFF" d="M700.223 408.368c-3.027-2.365-7.258-2.282-10.234.146a37.492 37.492 0 0 1-23.776 8.464c-8.732 0-16.766-2.973-23.138-7.973-3.034-2.38-7.334-2.332-10.261.179-7.588 6.506-12.208 15.889-12.208 28.085v1.1c0 6.307 5.113 11.42 11.421 11.42h70.286c6.307 0 11.42-5.113 11.42-11.42v-1.1c-.001-12.718-5.163-22.38-13.51-28.901z"/><linearGradient id="m" x1="549.388" x2="784.949" y1="755.061" y2="755.061" gradientUnits="userSpaceOnUse"><stop offset="0" stop-color="#ff9666"/><stop offset="1" stop-color="#c42d40"/></linearGradient><path fill="url(#m)" d="M774.488 787.307h-214.64c-5.777 0-10.461-4.684-10.461-10.461v-43.57c0-5.777 4.684-10.461 10.461-10.461h214.64c5.777 0 10.461 4.683 10.461 10.461v43.57c0 5.777-4.683 10.461-10.461 10.461z"/><linearGradient id="n" x1="641.377" x2="641.377" y1="-54.691" y2="951.37" gradientUnits="userSpaceOnUse"><stop offset="0" stop-color="#b0deff"/><stop offset="1" stop-color="#82baff"/></linearGradient><path fill="url(#n)" d="M752.264 611.71H530.491c-6.95 0-12.585-5.634-12.585-12.585v-.617c0-6.95 5.634-12.585 12.585-12.585h221.773c6.95 0 12.585 5.634 12.585 12.585v.617c-.001 6.951-5.635 12.585-12.585 12.585z"/><linearGradient id="o" x1="641.716" x2="641.716" y1="-54.691" y2="951.371" gradientUnits="userSpaceOnUse"><stop offset="0" stop-color="#b0deff"/><stop offset="1" stop-color="#82baff"/></linearGradient><path fill="url(#o)" d="M752.264 671.06H531.168c-6.95 0-12.585-5.634-12.585-12.585v-.617c0-6.95 5.634-12.585 12.585-12.585h221.096c6.95 0 12.585 5.634 12.585 12.585v.617c-.001 6.95-5.635 12.585-12.585 12.585z"/><linearGradient id="p" x1="802.095" x2="802.095" y1="-54.691" y2="951.37" gradientUnits="userSpaceOnUse"><stop offset="0" stop-color="#b0deff"/><stop offset="1" stop-color="#82baff"/></linearGradient><path fill="url(#p)" d="M813.66 611.71h-23.129c-6.95 0-12.585-5.634-12.585-12.585v-.617c0-6.95 5.634-12.585 12.585-12.585h23.129c6.95 0 12.585 5.634 12.585 12.585v.617c0 6.951-5.635 12.585-12.585 12.585z"/><linearGradient id="q" x1="802.095" x2="802.095" y1="-54.691" y2="951.37" gradientUnits="userSpaceOnUse"><stop offset="0" stop-color="#b0deff"/><stop offset="1" stop-color="#82baff"/></linearGradient><path fill="url(#q)" d="M813.66 671.06h-23.129c-6.95 0-12.585-5.634-12.585-12.585v-.617c0-6.95 5.634-12.585 12.585-12.585h23.129c6.95 0 12.585 5.634 12.585 12.585v.617c0 6.95-5.635 12.585-12.585 12.585z"/><path fill="#FFF" d="m541.681 650.108.751 5.272a.42.42 0 0 0 .56.334l4.998-1.839c.448-.165.779.428.403.723l-4.19 3.287a.42.42 0 0 0-.01.652l4.091 3.409c.367.306.019.889-.424.711l-4.942-1.986a.42.42 0 0 0-.569.317l-.907 5.248c-.081.471-.76.461-.828-.012l-.751-5.272a.42.42 0 0 0-.56-.334l-4.998 1.839c-.448.165-.779-.428-.403-.723l4.19-3.287a.42.42 0 0 0 .01-.652l-4.091-3.409c-.367-.306-.019-.889.425-.711l4.942 1.986a.42.42 0 0 0 .569-.318l.907-5.248c.081-.47.76-.46.827.013zM565.23 650.108l.751 5.272a.42.42 0 0 0 .56.334l4.998-1.839c.448-.165.779.428.403.723l-4.19 3.287a.42.42 0 0 0-.01.652l4.091 3.409c.367.306.019.889-.425.711l-4.942-1.986a.42.42 0 0 0-.569.317l-.907 5.248c-.081.471-.76.461-.828-.012l-.751-5.272a.42.42 0 0 0-.56-.334l-4.998 1.839c-.448.165-.779-.428-.403-.723l4.19-3.287a.42.42 0 0 0 .01-.652l-4.091-3.409c-.367-.306-.019-.889.425-.711l4.942 1.986a.42.42 0 0 0 .569-.318l.907-5.248c.082-.47.761-.46.828.013zM588.779 650.108l.751 5.272a.419.419 0 0 0 .559.334l4.998-1.839c.448-.165.779.428.403.723l-4.19 3.287a.42.42 0 0 0-.01.652l4.091 3.409c.367.306.019.889-.424.711l-4.942-1.986a.42.42 0 0 0-.569.317l-.907 5.248c-.081.471-.76.461-.828-.012l-.751-5.272a.42.42 0 0 0-.56-.334l-4.998 1.839c-.448.165-.779-.428-.403-.723l4.19-3.287a.42.42 0 0 0 .01-.652l-4.091-3.409c-.367-.306-.019-.889.424-.711l4.942 1.986a.42.42 0 0 0 .569-.318l.907-5.248c.083-.47.762-.46.829.013zM612.328 650.108l.751 5.272a.42.42 0 0 0 .56.334l4.998-1.839c.448-.165.779.428.403.723l-4.19 3.287a.42.42 0 0 0-.01.652l4.091 3.409c.367.306.019.889-.424.711l-4.942-1.986a.42.42 0 0 0-.569.317l-.907 5.248c-.081.471-.76.461-.828-.012l-.751-5.272a.42.42 0 0 0-.56-.334l-4.998 1.839c-.448.165-.779-.428-.403-.723l4.19-3.287a.42.42 0 0 0 .01-.652l-4.091-3.409c-.367-.306-.019-.889.425-.711l4.941 1.986a.42.42 0 0 0 .569-.318l.907-5.248c.082-.47.761-.46.828.013zM635.877 650.108l.751 5.272a.42.42 0 0 0 .56.334l4.998-1.839c.448-.165.779.428.403.723l-4.19 3.287a.42.42 0 0 0-.01.652l4.091 3.409c.367.306.019.889-.425.711l-4.941-1.986a.42.42 0 0 0-.569.317l-.907 5.248c-.081.471-.76.461-.828-.012l-.751-5.272a.42.42 0 0 0-.56-.334l-4.998 1.839c-.448.165-.779-.428-.403-.723l4.19-3.287a.42.42 0 0 0 .01-.652l-4.091-3.409c-.367-.306-.019-.889.424-.711l4.942 1.986a.42.42 0 0 0 .569-.318l.907-5.248c.082-.47.761-.46.828.013zM536.266 598.817a3.024 3.024 0 1 1 6.048 0 3.024 3.024 0 0 1-6.048 0zM546.03 598.817a3.024 3.024 0 1 1 6.048 0 3.024 3.024 0 0 1-6.048 0zM555.794 598.817a3.024 3.024 0 1 1 6.048 0 3.024 3.024 0 0 1-6.048 0zM565.558 598.817a3.024 3.024 0 1 1 6.048 0 3.024 3.024 0 0 1-6.048 0zM575.322 598.817a3.024 3.024 0 1 1 6.048 0 3.024 3.024 0 0 1-6.048 0zM585.086 598.817a3.024 3.024 0 1 1 6.048 0 3.024 3.024 0 0 1-6.048 0zM594.851 598.817a3.024 3.024 0 1 1 6.048 0 3.024 3.024 0 0 1-6.048 0zM604.615 598.817a3.024 3.024 0 1 1 6.048 0 3.024 3.024 0 0 1-6.048 0zM584.908 770.721v-35.537h23.974v4.193h-19.271v11.006h16.678v4.193h-16.678v16.144h-4.703zM612.809 757.849c0-4.767 1.324-8.298 3.975-10.593 2.214-1.907 4.913-2.86 8.097-2.86 3.539 0 6.432 1.16 8.679 3.478 2.246 2.319 3.369 5.523 3.369 9.612 0 3.313-.497 5.919-1.49 7.818-.994 1.899-2.441 3.373-4.339 4.424-1.899 1.05-3.972 1.575-6.218 1.575-3.604 0-6.517-1.155-8.738-3.466-2.224-2.312-3.335-5.641-3.335-9.988zm4.485 0c0 3.297.719 5.765 2.157 7.405 1.438 1.641 3.248 2.461 5.43 2.461 2.165 0 3.967-.824 5.406-2.473 1.438-1.648 2.157-4.161 2.157-7.539 0-3.183-.723-5.595-2.17-7.236-1.446-1.64-3.244-2.46-5.393-2.46-2.182 0-3.992.816-5.43 2.448-1.438 1.633-2.157 4.097-2.157 7.394zM641.994 770.721v-25.743h3.928v3.902c1.002-1.826 1.927-3.03 2.775-3.612a4.84 4.84 0 0 1 2.799-.873c1.471 0 2.965.469 4.485 1.406l-1.503 4.048c-1.066-.631-2.133-.945-3.2-.945a4.16 4.16 0 0 0-2.569.86c-.76.574-1.301 1.37-1.624 2.388-.485 1.552-.727 3.249-.727 5.091v13.478h-4.364zM657.775 772.854l4.243.63c.177 1.309.67 2.263 1.478 2.861 1.082.808 2.561 1.212 4.436 1.212 2.02 0 3.579-.404 4.678-1.212 1.099-.809 1.843-1.939 2.23-3.394.227-.889.331-2.755.316-5.599-1.908 2.247-4.283 3.37-7.127 3.37-3.539 0-6.278-1.277-8.217-3.83-1.939-2.553-2.909-5.615-2.909-9.187 0-2.456.444-4.722 1.333-6.799.889-2.076 2.178-3.681 3.867-4.812 1.688-1.131 3.672-1.697 5.951-1.697 3.038 0 5.542 1.228 7.514 3.684v-3.103h4.024v22.253c0 4.008-.409 6.848-1.224 8.521-.816 1.672-2.109 2.993-3.879 3.963-1.769.97-3.947 1.454-6.533 1.454-3.07 0-5.551-.691-7.441-2.073s-2.805-3.463-2.74-6.242zm3.612-15.466c0 3.378.67 5.842 2.012 7.393 1.341 1.552 3.022 2.327 5.042 2.327 2.004 0 3.685-.771 5.043-2.315 1.357-1.543 2.036-3.964 2.036-7.26 0-3.151-.7-5.527-2.097-7.127-1.398-1.6-3.083-2.4-5.055-2.4-1.94 0-3.587.788-4.945 2.363-1.357 1.577-2.036 3.916-2.036 7.019zM684.562 757.849c0-4.767 1.324-8.298 3.975-10.593 2.214-1.907 4.913-2.86 8.097-2.86 3.539 0 6.432 1.16 8.679 3.478 2.246 2.319 3.369 5.523 3.369 9.612 0 3.313-.497 5.919-1.49 7.818-.994 1.899-2.441 3.373-4.339 4.424-1.899 1.05-3.972 1.575-6.218 1.575-3.604 0-6.516-1.155-8.738-3.466-2.225-2.312-3.335-5.641-3.335-9.988zm4.485 0c0 3.297.719 5.765 2.157 7.405 1.438 1.641 3.248 2.461 5.43 2.461 2.165 0 3.967-.824 5.406-2.473 1.438-1.648 2.157-4.161 2.157-7.539 0-3.183-.723-5.595-2.17-7.236-1.446-1.64-3.244-2.46-5.393-2.46-2.182 0-3.992.816-5.43 2.448-1.439 1.633-2.157 4.097-2.157 7.394zM723.322 766.818l.631 3.855c-1.229.258-2.327.388-3.296.388-1.584 0-2.812-.251-3.685-.751-.873-.501-1.487-1.16-1.843-1.976-.355-.816-.533-2.533-.533-5.151v-14.811h-3.2v-3.393h3.2v-6.375l4.339-2.618v8.993h4.387v3.393h-4.387v15.053c0 1.244.076 2.045.23 2.4.153.356.404.639.751.848.347.21.844.315 1.491.315.485-.001 1.123-.057 1.915-.17zM735.758 761.97a53.205 53.205 0 0 1-.025-1.309c0-1.713.243-3.192.727-4.436.356-.937.929-1.883 1.721-2.836.582-.695 1.628-1.709 3.139-3.042 1.511-1.333 2.493-2.396 2.946-3.188a5.131 5.131 0 0 0 .678-2.594c0-1.697-.663-3.188-1.987-4.472-1.325-1.285-2.95-1.927-4.872-1.927-1.859 0-3.41.582-4.654 1.745-1.245 1.164-2.061 2.982-2.448 5.454l-4.485-.533c.404-3.313 1.604-5.85 3.6-7.612 1.995-1.761 4.634-2.642 7.914-2.642 3.474 0 6.245.945 8.314 2.836s3.103 4.177 3.103 6.86c0 1.552-.364 2.982-1.091 4.291-.727 1.309-2.149 2.901-4.266 4.776-1.422 1.261-2.351 2.19-2.787 2.788a6.225 6.225 0 0 0-.97 2.06c-.21.776-.331 2.036-.364 3.781h-4.193zm-.267 8.751v-4.969h4.969v4.969h-4.969z"/><path fill="#FFCBC7" d="M978.443 892.027c-.375 4.921 5.132 10.079 5.43 15.138-20.932 4.473-42.04 8.115-63.142 11.811 2.867-13.631 17.551-16.4 30.45-19.768 5.484-1.432 9.197-6.484 9.029-12.149-2.455-82.736-35.881-176.453-16.883-257.193 6.588-.149 7.062 1.822 14.799 1.505 7.737-.318 20.976-1.239 29.861-1.789 2.622 77.542-9.025 255.641-9.544 262.445z"/><path fill="#FFCBC7" d="M1101.226 813.665c4.696-1.633 10.165 3.469 14.894 2.268-4.24 19.39-10.481 31.301-19.359 49.128-5.421-11.068-3.661-21.981-5.7-33.805-14.156-3.43-88.483-28.837-98.641-51.15-18.829-41.358-44.492-88.614-34.88-148.729 12.44-.388 24.881-1.466 37.273-2.05 23.202 33.396 29.162 123.067 34.972 132.922 11.27 19.113 66.178 44.717 71.441 51.416z"/><path fill="#263182" d="M934.692 904.389c-3.943.93-22.047 4.988-17.907 14.79 4.141 9.801 54.545.093 63.414-5.063 8.869-5.155.662-15.341-2.028-21.31-7.967 15.916-31.315 24.484-46.804 17.833-5.824-2.5 1.916-5.917 3.325-6.25zM1093.309 851.678c.263 3.571-3.105 22.651 5.669 20.845 8.773-1.806 24.003-49.208 20.315-58.217-4.212-10.29-14.527-2.066-17.925-.69 12.585 8.767 5.971 35.81-3.897 42.47-3.432 2.316-4.241-2.77-4.162-4.408z"/><linearGradient id="r" x1="903.765" x2="1056.833" y1="703.474" y2="703.474" gradientUnits="userSpaceOnUse"><stop offset="0" stop-color="#326ab3"/><stop offset="1" stop-color="#003780"/></linearGradient><path fill="url(#r)" d="M1056.833 756.026s-11.82 13.062-22.93 10.358c0 0-12.307 18.65-31.639 5.77-14.651 9.063-29.281 9.063-43.93 0-19.314 12.88-31.641-5.77-31.641-5.77-11.109 2.704-22.928-10.358-22.928-10.358 10.607-49.921 33.536-92.56 39.095-128.03l53.209 1.761c16.446 16.37 26.976 84.688 60.764 126.269z"/><path fill="#263182" d="M967.595 466.557c-6.464 6.878-9.183 19.103-3.818 27.406 4.225 8.668 4.14 18.808 3.31 28.278 2.067-9.473 2.28-20.016-2.183-28.866-5.299-7.96-2.906-19.645 2.691-26.818z"/><path fill="#1F1C80" d="M965.559 493.155c-4.417-9.387-5.906-25.535 9.131-30.938 10.94-3.931 20.136-4.09 30.085 3.416 9.949 7.507 13.807 24.004 11.698 35.827-2.529 14.167 14.225 26.459 7.686 37.956-8.781 15.443-52.848 2.209-67.954-.083 9.901-16.145 19.577-24.455 9.354-46.178z"/><path fill="#FFCBC7" d="M895.277 467.597c-.103-.063-1.861-.643-3.04-5.396-.352-1.415.568-10.022-2.532-10.944-2.345-.697-2.558 7.065-3.123 7.011-4.797-.457-10.034-15.075-15.186-12.063-2.837 1.658 3.401 15.145 9.922 21.065.724.658 2.248 7.102 2.248 7.102l11.711-6.775z"/><linearGradient id="s" x1="562.927" x2="659.946" y1="214.561" y2="214.561" gradientTransform="rotate(-13.615 2038.333 -1020.444)" gradientUnits="userSpaceOnUse"><stop offset="0" stop-color="#b5e0ff"/><stop offset="1" stop-color="#8cc0ff"/></linearGradient><path fill="url(#s)" d="M979.855 566.366c-17.521-1.736-53.631-21.123-64.065-31.87-5.357-7.298-27.548-48.535-33.192-59.066-.77-1.437-.32-3.21 1.023-4.135a57.911 57.911 0 0 1 9.449-5.311 3.191 3.191 0 0 1 3.959 1.158l32.751 49.809c8.711 3.047 60.002 12.009 68.317 26.817 6.652 11.851-1.022 24.305-18.242 22.598z"/><linearGradient id="t" x1="940.135" x2="1008.759" y1="581.797" y2="581.797" gradientUnits="userSpaceOnUse"><stop offset="0" stop-color="#b5e0ff"/><stop offset="1" stop-color="#8cc0ff"/></linearGradient><path fill="url(#t)" d="M940.201 633.209c.1.416.337.793.692 1.065 12.399 9.545 39.763.88 57.062-.408a2.88 2.88 0 0 0 2.655-3.06c-2.647-37.498 25.621-76.236-10.005-105.052-5.356-.132-10.965-1.766-16.076-.158-26.8 8.437-31.31 35.078-32.103 60.971-.478 15.799.425 31.318-1.503 42.253l-.026.132c-.048.302-.106.596-.163.89a41.074 41.074 0 0 1-.534 2.336c-.087.342-.087.698.001 1.031z"/><path fill="#FFCBC7" d="M991.381 529.222a74.98 74.98 0 0 0 1.99-1.092c-1.052-4.93-1.797-15.528-2.042-21.969a93.582 93.582 0 0 1-.083-3.997c-2.914 2.432-8.279 3.655-10.409 6.903-2.13 3.243-3.742 15.261-3.901 15.94-2.844 12.011 8.27 7.453 14.445 4.215z"/><path fill="#FABAB4" d="M978.689 516.459s5.826-.65 8.941-.793c3.752-.171 3.738 10.583 3.751 13.555a74.98 74.98 0 0 0 1.99-1.092c-1.052-4.93-1.797-15.528-2.042-21.969a6529.332 6529.332 0 0 0-12.64 10.299zM969.931 479.088s-.291 8.711 8.512 11.969c0 0-1.733-3.287 2.249-6.66 0 0-.369 5.402 2.696 8.374 3.064 2.973 8.093 7.975 4.888 15.52l2.4-2.387 1.087-18.993-12.577-8.175-9.255.352z"/><path fill="#263182" d="M984.388 462.275c3.477-3.568 9.412-1.491 13.486-.052 14.879 5.484 23.469 22.503 17.52 37.498-1.447 4.946-4.736 4.829-1.341 10.295 4.107 5.876 9.866 10.643 11.715 17.787 2.056 6.601-.158 15.75-7.995 16.873 8.184-.69 10.871-10.219 8.879-17.103-1.403-5.978-5.583-10.818-9.424-15.404-1.589-1.893-3.158-4.092-3.468-6.553.391-.687 1.05-1.314 1.41-2.06 6.997-13.35 2.528-30.902-10.608-38.599-5.549-3.195-14.639-7.744-20.174-2.682z"/><linearGradient id="u" x1="580.552" x2="696.47" y1="224.38" y2="224.38" gradientTransform="rotate(-10.283 2008.42 -1050.303)" gradientUnits="userSpaceOnUse"><stop offset="0" stop-color="#ffca59"/><stop offset="1" stop-color="#ff8f5c"/></linearGradient><path fill="url(#u)" d="M828.839 381.493c.376 1.128.004 2.366-.989 3.02l-6.401 4.215a5.12 5.12 0 0 0-1.303 7.318c1.644 2.233 4.861 2.6 7.177 1.075l5.745-3.783a2.56 2.56 0 0 1 3.545.73l8.448 12.83a2.56 2.56 0 0 1-.73 3.545l-5.987 3.943a5.12 5.12 0 0 0-1.303 7.318c1.644 2.233 4.861 2.6 7.176 1.075l5.745-3.783a2.559 2.559 0 0 1 3.545.73l31.555 47.921c4.051 6.152 5.373 13.85 3.047 20.839-3.233 9.715-2.154 20.752 3.915 29.968 11.246 17.078 35.016 20.957 51.201 7.495 12.428-10.337 15.968-28.378 8.403-42.664-5.857-11.06-16.567-17.468-27.858-18.383-7.178-.582-13.611-4.666-17.572-10.681l-54.767-83.171c-3.666-5.568-11.069-7.699-16.867-4.41-5.376 3.048-7.561 9.348-5.725 14.853zm90.93 116.103c6.741-4.439 15.814-2.583 20.252 4.157 4.439 6.74 2.568 15.824-4.172 20.262-6.741 4.439-15.809 2.558-20.247-4.182-4.439-6.74-2.573-15.798 4.167-20.237z"/><path fill="#FFCBC7" d="M921.907 523.842s-1.143-5.57-.743-7.33c.4-1.76 3.389-7.394 1.487-10.563-3.12-5.197-15.218-4.259-16.304.258-1.086 4.516 1.312 9.267 3.205 11.919 1.359 1.904 1.479 8.804 1.479 8.804l10.876-3.088z"/><linearGradient id="v" x1="907.699" x2="1000.578" y1="561.599" y2="561.599" gradientUnits="userSpaceOnUse"><stop offset="0" stop-color="#b5e0ff"/><stop offset="1" stop-color="#8cc0ff"/></linearGradient><path fill="url(#v)" d="M994.6 573.06c-10.125 10.21-48.918 31.534-66.202 26.436-19.468-5.742-18.881-58.357-20.671-70.894a2.74 2.74 0 0 1 2.14-3.065l11.922-2.549a2.74 2.74 0 0 1 3.213 1.943l13.083 41.498s29.065-21.694 44.613-27.325c11.902-4.31 26.185 19.554 11.902 33.956z"/><path fill="#FFCBC7" d="M968.175 515.112c-7.746-3.467-5.832-29.179.601-37.356 6.568 8.375 18.271 8.195 27.703 5.217-.79 2.116-.472 9.059-2.099 11.746 1.528-2.524 6.933-2.186 5.985 2.784-.864 4.533-3.695 5.573-7.679 6.931-3.524 9.555-14.195 15.296-24.511 10.678z"/><path fill="#1F1C80" d="M964.213 489.41s.907-7.103 5.718-10.322c0 0 2.109 7.931 8.705 10.505 0 0 .181-3.728 2.056-5.196 0 0 1.152 5.873 6.844 10.321 5.318 4.155.361 13.758-1.558 15.882 0 0 9.852-5.761 8.755-16.603 0 0 7.915-6.777 8.051-7.116.135-.339-.542-8.064-.542-8.064s-18.498-4.812-18.533-5.015c-.036-.204-7.542-2.643-7.542-2.643l-5.776.542-4.337 1.559-1.841 16.15z"/><linearGradient id="w" x1="411.817" x2="548.191" y1="142.702" y2="142.702" gradientUnits="userSpaceOnUse"><stop offset="0" stop-color="#ff9666"/><stop offset="1" stop-color="#c42d40"/></linearGradient><circle cx="480.004" cy="142.702" r="68.187" fill="url(#w)"/><path fill="#FFF" d="m511.103 183.075 12.712-14.341-34.518-26.516 31.576-29.958-14.133-12.942-27.52 33.948-30.316-30.935-12.712 14.341 33.855 26.55-30.913 29.924 14.133 12.942 26.937-33.917 30.899 30.904z"/><linearGradient id="x" x1="1043.244" x2="1032.493" y1="376.772" y2="423.766" gradientUnits="userSpaceOnUse"><stop offset="0" stop-color="#ff9666"/><stop offset="1" stop-color="#c42d40"/></linearGradient><path fill="url(#x)" d="m1040.553 413.491-14.432-3.761.376-1.443c.64-2.456 1.438-4.377 2.394-5.764a13.688 13.688 0 0 1 3.581-3.548c1.431-.979 4.487-2.562 9.167-4.749 2.486-1.137 3.911-2.401 4.274-3.794.363-1.393.234-2.582-.388-3.569-.622-.987-1.768-1.698-3.439-2.133-1.798-.468-3.44-.261-4.928.622-1.487.883-2.782 2.763-3.883 5.64l-14.26-5.663c1.918-5.286 5.023-9.134 9.315-11.545 4.292-2.41 9.982-2.691 17.071-.844 5.519 1.438 9.675 3.752 12.468 6.94 3.796 4.315 5.018 9.068 3.666 14.258-.561 2.152-1.697 4.073-3.408 5.763-1.711 1.69-4.778 3.5-9.202 5.43-3.085 1.359-5.123 2.565-6.114 3.618-.991 1.053-1.744 2.567-2.258 4.542zm-15.925-.054 15.457 4.028-3.553 13.634-15.457-4.028 3.553-13.634z"/><linearGradient id="y" x1="2215.864" x2="2272.154" y1="-2624.897" y2="-2624.897" gradientTransform="rotate(116.391 709.625 -1459.532)" gradientUnits="userSpaceOnUse"><stop offset="0" stop-color="#ffca59"/><stop offset="1" stop-color="#ff8f5c"/></linearGradient><path fill="url(#y)" d="m1088.382 431.203-22.701 11.866-5.783-8.394 19.133-17.046 10.422-7.18 9.351 13.574-10.422 7.18zm-35.646 23.867-8.728-12.669 11.203-7.717 8.728 12.669-11.203 7.717z"/><path fill="#263182" d="M1203.521 921.538H245.972a.92.92 0 0 0-.919.919v.011a.92.92 0 0 0 .919.919h957.549a.92.92 0 0 0 .919-.919v-.011a.918.918 0 0 0-.919-.919zM224.696 923.386h-64.217a.92.92 0 0 1-.919-.919v-.011a.92.92 0 0 1 .919-.919h64.217a.92.92 0 0 1 .919.919v.011a.92.92 0 0 1-.919.919z"/><path fill="#224585" d="M450.011 733.605h-39.972c-14.988 0-27.139 12.151-27.139 27.139v57.013h12.965v-55.402c0-8.718 7.067-15.786 15.786-15.786h36.75c8.718 0 15.786 7.068 15.786 15.786v55.402h12.965v-57.013c-.002-14.988-12.152-27.139-27.141-27.139z"/><linearGradient id="z" x1="325.935" x2="519.904" y1="753.273" y2="944.607" gradientUnits="userSpaceOnUse"><stop offset="0" stop-color="#ffca59"/><stop offset="1" stop-color="#ff8f5c"/></linearGradient><path fill="url(#z)" d="M490.703 790.36H369.347c-10.214 0-18.495 8.281-18.495 18.495v94.188c0 10.214 8.281 18.495 18.495 18.495h121.356c10.214 0 18.495-8.281 18.495-18.495v-94.188c0-10.214-8.281-18.495-18.495-18.495z"/><circle cx="431.543" cy="863.387" r="35.994" fill="#FFF"/><linearGradient id="A" x1="401.759" x2="461.327" y1="863.387" y2="863.387" gradientUnits="userSpaceOnUse"><stop offset="0" stop-color="#ffca59"/><stop offset="1" stop-color="#ff8f5c"/></linearGradient><circle cx="431.543" cy="863.387" r="29.784" fill="url(#A)"/><path fill="#224585" d="M437.537 863.09a11.06 11.06 0 0 0 5.078-9.308c0-6.116-4.958-11.073-11.073-11.073s-11.073 4.957-11.073 11.073c0 3.906 2.024 7.336 5.079 9.308l-2.496 20.696a2.583 2.583 0 0 0 2.564 2.892h11.853a2.582 2.582 0 0 0 2.564-2.892l-2.496-20.696z"/><linearGradient id="B" x1="1085.081" x2="1085.081" y1="12.777" y2="395.996" gradientUnits="userSpaceOnUse"><stop offset="0" stop-color="#dbecff"/><stop offset="1" stop-color="#c4e6ff"/></linearGradient><path fill="url(#B)" d="M1018.05 297.326h149.278s8.781-5.693-11.081-8.242c-19.862-2.55-14.217-17.211-19.026-14.662-4.809 2.55-9.425 10.993-17.98-.297-12.335-16.277-22.58-28.708-29.061-11.496-6.481 17.211-13.98 13.626-17.353 9.781-6.063-6.912-16.517-11.155-21.953 0s-13.815-1.767-19.862-2.45c-5.645-.638-4.809 15.299-13.59 17.211-8.781 1.912-16.726 0-16.517 4.143s15.263 6.012 17.145 6.012z"/><linearGradient id="C" x1="664.88" x2="664.88" y1="12.777" y2="395.997" gradientUnits="userSpaceOnUse"><stop offset="0" stop-color="#dbecff"/><stop offset="1" stop-color="#c4e6ff"/></linearGradient><path fill="url(#C)" d="M597.849 79.394h149.278s8.781-5.693-11.081-8.243c-19.862-2.55-14.217-17.211-19.026-14.662-4.809 2.55-9.425 10.993-17.98-.296-12.335-16.277-22.58-28.708-29.061-11.496-6.481 17.211-13.98 13.626-17.353 9.781-6.063-6.912-16.517-11.156-21.953 0-5.436 11.155-13.815-1.767-19.862-2.45-5.645-.637-4.808 15.299-13.59 17.212-8.781 1.912-16.726 0-16.517 4.144.21 4.142 15.263 6.01 17.145 6.01z"/><linearGradient id="D" x1="281.515" x2="281.515" y1="12.778" y2="395.997" gradientUnits="userSpaceOnUse"><stop offset="0" stop-color="#dbecff"/><stop offset="1" stop-color="#c4e6ff"/></linearGradient><path fill="url(#D)" d="M214.484 245.409h149.278s8.781-5.693-11.081-8.242c-19.862-2.55-14.217-17.211-19.026-14.662-4.809 2.55-9.425 10.993-17.98-.296-12.335-16.277-22.58-28.708-29.061-11.497-6.481 17.211-13.98 13.626-17.353 9.781-6.063-6.912-16.517-11.156-21.953 0s-13.815-1.767-19.862-2.45c-5.645-.637-4.809 15.299-13.59 17.212-8.781 1.912-16.726 0-16.517 4.143.21 4.143 15.263 6.011 17.145 6.011z"/><linearGradient id="E" x1="243.309" x2="256.325" y1="420.582" y2="429.132" gradientUnits="userSpaceOnUse"><stop offset="0" stop-color="#ff9666"/><stop offset="1" stop-color="#c42d40"/></linearGradient><path fill="url(#E)" d="M254.804 422.728a2.33 2.33 0 0 1 .278 1.791 2.334 2.334 0 0 1-1.629 1.703l-7.894 2.302a2.334 2.334 0 0 1-2.289-.56 2.332 2.332 0 0 1-.659-2.262l1.953-7.987c.202-.828.811-1.464 1.629-1.702s1.673-.029 2.288.56l5.94 5.685c.151.143.278.301.383.47zm-10.331 3.792a.489.489 0 0 0 .566.22l7.893-2.302a.492.492 0 0 0 .345-.36.489.489 0 0 0-.139-.478l-5.941-5.685a.486.486 0 0 0-.484-.118.49.49 0 0 0-.345.36l-1.953 7.987a.483.483 0 0 0 .058.376z"/><linearGradient id="F" x1="1075.098" x2="1088.114" y1="595.394" y2="603.944" gradientUnits="userSpaceOnUse"><stop offset="0" stop-color="#ff9666"/><stop offset="1" stop-color="#c42d40"/></linearGradient><path fill="url(#F)" d="M1086.593 597.54a2.33 2.33 0 0 1 .278 1.791 2.334 2.334 0 0 1-1.629 1.703l-7.894 2.302a2.334 2.334 0 0 1-2.289-.56 2.332 2.332 0 0 1-.659-2.262l1.953-7.987c.202-.828.811-1.464 1.629-1.702s1.673-.029 2.288.56l5.94 5.685c.15.143.278.301.383.47zm-10.331 3.793a.488.488 0 0 0 .566.22l7.893-2.302a.492.492 0 0 0 .345-.36.488.488 0 0 0-.14-.478l-5.941-5.685a.486.486 0 0 0-.484-.118.49.49 0 0 0-.345.36l-1.953 7.987a.487.487 0 0 0 .059.376z"/><linearGradient id="G" x1="754.864" x2="767.881" y1="103.161" y2="111.711" gradientUnits="userSpaceOnUse"><stop offset="0" stop-color="#ff9666"/><stop offset="1" stop-color="#c42d40"/></linearGradient><path fill="url(#G)" d="M766.359 105.307a2.33 2.33 0 0 1 .278 1.791 2.33 2.33 0 0 1-1.629 1.702l-7.894 2.302a2.332 2.332 0 0 1-2.289-.56 2.332 2.332 0 0 1-.659-2.262l1.953-7.987a2.329 2.329 0 0 1 1.629-1.702 2.332 2.332 0 0 1 2.288.56l5.94 5.685c.151.144.278.302.383.471zm-10.331 3.792a.488.488 0 0 0 .566.22l7.893-2.302a.492.492 0 0 0 .345-.36.489.489 0 0 0-.139-.478l-5.941-5.685a.486.486 0 0 0-.484-.118.49.49 0 0 0-.345.36l-1.953 7.987a.483.483 0 0 0 .058.376z"/><linearGradient id="H" x1="292.941" x2="304.51" y1="722.815" y2="722.815" gradientUnits="userSpaceOnUse"><stop offset="0" stop-color="#ffca59"/><stop offset="1" stop-color="#ff8f5c"/></linearGradient><path fill="url(#H)" d="m301.112 722.818 2.904-2.904a1.688 1.688 0 0 0-2.387-2.387l-2.904 2.904-2.904-2.904a1.688 1.688 0 0 0-2.387 2.387l2.904 2.904-2.898 2.898a1.688 1.688 0 0 0 2.386 2.387l2.898-2.898 2.898 2.898c.329.33.761.494 1.193.494a1.688 1.688 0 0 0 1.193-2.881l-2.896-2.898z"/><linearGradient id="I" x1="1013.23" x2="1024.799" y1="870.795" y2="870.795" gradientUnits="userSpaceOnUse"><stop offset="0" stop-color="#ffca59"/><stop offset="1" stop-color="#ff8f5c"/></linearGradient><path fill="url(#I)" d="m1021.401 870.797 2.903-2.904a1.688 1.688 0 0 0-2.386-2.387l-2.904 2.904-2.904-2.904a1.688 1.688 0 0 0-2.387 2.387l2.904 2.904-2.898 2.898a1.688 1.688 0 0 0 2.386 2.387l2.898-2.898 2.898 2.898c.329.33.762.494 1.193.494a1.688 1.688 0 0 0 1.193-2.881l-2.896-2.898z"/><linearGradient id="J" x1="359.063" x2="372.327" y1="174.205" y2="174.205" gradientUnits="userSpaceOnUse"><stop offset="0" stop-color="#326ab3"/><stop offset="1" stop-color="#003780"/></linearGradient><path fill="url(#J)" d="M365.695 180.836a6.64 6.64 0 0 1-6.632-6.632c0-3.657 2.975-6.632 6.632-6.632s6.632 2.975 6.632 6.632a6.64 6.64 0 0 1-6.632 6.632zm0-11.188a4.562 4.562 0 0 0-4.556 4.557c0 2.512 2.044 4.556 4.556 4.556s4.556-2.044 4.556-4.556a4.561 4.561 0 0 0-4.556-4.557z"/><linearGradient id="K" x1="951.105" x2="964.369" y1="332.841" y2="332.841" gradientUnits="userSpaceOnUse"><stop offset="0" stop-color="#326ab3"/><stop offset="1" stop-color="#003780"/></linearGradient><path fill="url(#K)" d="M957.737 339.473a6.64 6.64 0 0 1-6.632-6.632 6.64 6.64 0 0 1 6.632-6.632 6.64 6.64 0 0 1 6.632 6.632 6.64 6.64 0 0 1-6.632 6.632zm0-11.189a4.561 4.561 0 0 0-4.556 4.556 4.562 4.562 0 0 0 4.556 4.557 4.562 4.562 0 0 0 4.557-4.557 4.563 4.563 0 0 0-4.557-4.556z"/></svg>