<svg xmlns="http://www.w3.org/2000/svg" enable-background="new 0 0 850 850" viewBox="0 0 850 850"><path fill="#f2e7e7" d="M678.75,676.9c43.18-1.55,189.37-212.08,55.2-426.55c0,0-28.85-30.35-68.27-11.1
				c0,0-68.97,27.12-125.64-15.32c0,0-103.59-65.44-171.36-64.56c0,0-80.86-6.02-169.8,98.62c0,0-93.31,103.48-134.1,193.47
				c0,0-40.82,97.98,134.65,232.16L678.75,676.9z"/><rect width="356.14" height="406.12" x="233.64" y="271.77" fill="#b7dfff" transform="rotate(.22 411.71 474.826)"/><rect width="240.55" height="43.74" x="292.62" y="347.53" fill="#fff" transform="rotate(.22 412.89 369.387)"/><rect width="240.55" height="43.74" x="292.41" y="402.2" fill="#fff" transform="matrix(1 .00384 -.00384 1 1.63 -1.58)"/><rect width="240.55" height="43.74" x="292.2" y="456.87" fill="#fff" transform="rotate(.22 412.474 478.736)"/><rect width="240.55" height="43.74" x="291.99" y="511.54" fill="#fff" transform="rotate(.22 412.266 533.41)"/><rect width="240.55" height="43.74" x="291.68" y="592.76" fill="#2b468a" transform="rotate(.22 411.952 614.627)"/><rect width="99.97" height="24.99" x="361.97" y="602.13" fill="#fff" transform="rotate(.22 411.952 614.627)"/><rect width="90.6" height="43.74" x="367.81" y="292.86" fill="#7a8fd3" transform="rotate(.22 413.098 314.738)"/><rect width="2" height="70.29" x="412.15" y="267.09" fill="#dceff8" transform="rotate(-89.78 413.15 302.228)"/><rect width="2" height="70.29" x="412.11" y="279.58" fill="#dceff8" transform="rotate(-89.78 413.103 314.724)"/><rect width="2" height="70.29" x="412.06" y="292.08" fill="#dceff8" transform="rotate(-89.78 413.055 327.22)"/><path fill="#b7dfff" d="M714.7,175.3l-49.16-0.19c-9.72-0.04-17.62,7.81-17.66,17.53l-0.16,41.35c-0.04,9.72,7.81,17.62,17.53,17.66
				l13,0.05l-4.68,13.42l21.06-13.36l19.78,0.08c9.72,0.04,17.62-7.81,17.66-17.53l0.16-41.35
				C732.26,183.25,724.42,175.34,714.7,175.3z"/><circle cx="689.18" cy="215.04" r="25.77" fill="#7a8fd3"/><polygon fill="#fff" points="682.69 225.94 674.29 212.38 675.99 211.33 683.12 222.83 702.6 204.98 703.95 206.45"/><path fill="#e5959d" d="M656.63,337.03l3.85,35.73c9.78,4.84,18.77,2.54,27.12-5.65c0,0-6.85-28.19-3.63-41.04L656.63,337.03z"/><path fill="#f9aeac" d="M668.03,315.23c-0.62,0.35-1.33-0.17-1.25-0.92c1.47-12.66-0.17-21.16-11.05-15.57
					c0.06,0.11,0.11,0.22,0.17,0.34c0,0-5.17,4.98-5.6,13.84l-6.11,6.47l3,2.83l-1,3.31l0.95,1.34l-0.63,1.94l1.31,1.39
					c-3.7,8.01,2.89,6.46,9.25,9.34l19.85-3.89C679.44,321.9,683.7,306.32,668.03,315.23z"/><path fill="#100259" d="M690.74,295.78c-0.27-0.27-0.54-0.55-0.79-0.85c-10.9-12.6-42.05-11.61-34.22,3.81
					c10.89-5.59,12.52,2.91,11.05,15.57c-0.09,0.74,0.63,1.27,1.25,0.92c15.67-8.91,11.42,6.67,8.87,20.42l5.95-1.17
					C692.8,318.69,699.26,304.28,690.74,295.78z"/><path fill="#dceff8" d="M683.5,352.5l-19.61,17.12l-4.21-15.46c-0.41-1.49-2.27-1.99-3.36-0.9l-5.69,5.67l-19.91,108.06l16.75,24
					l47.85,3.73l-0.75-35.46l-6.93-42.57l5.48-42.53l0.93-12.41c0,0-6.34-0.02-7.69-8.2C686.14,352.2,684.54,351.59,683.5,352.5z"/><path fill="#f9aeac" d="M577.77,405.63c0,0-11.47-13.34-18.57-10.71c0,0-3.66,1.21-6.42-1.42c-0.77-0.74-2.06-0.36-2.25,0.69
					c-1.09,6.1-1.11,19.8,21,18.51L577.77,405.63z"/><path fill="#bababa" d="M669.9,651.51l-0.1,25.7l-37.53-0.14c-0.84,0-1.24-1.05-0.59-1.6c3.49-2.99,11.73-9.21,20.45-9.85
					l0.06-15.07C652.17,650.56,668.81,651.51,669.9,651.51z"/><path fill="#bababa" d="M717.75,654.35l-0.06,16.84l-16.62,18.97c-0.67,0.77-1.91,0.7-2.46-0.17c-1.71-2.69-3.71-9.14,4.02-20.63
					l0.07-19.5L717.75,654.35z"/><path fill="#cc4040" d="M625.26,366.34c0,0-7.5,11.08-25.36,44.69l-20.42-9.25l-5.24-2.38l-7.15,14.15
					c0,0,37.47,34.54,45.86,15.98c1.34-2.97,2.83-5.88,4.71-8.54l15.08-21.36L625.26,366.34z"/><path fill="#18304a" d="M700.73,469.92c0,0-48.81,14.88-73.53-9.15l20.52,195.08l26.59,0.1l-7.41-147.17l29.57,148.14l23.93,0.09
					L700.73,469.92z"/><path fill="#e13268" d="M686.51,353.77c0,0,8.76,11.07,21.84,17.08c3.55,1.63,5.04,5.84,3.32,9.34
					c-15.87,32.33-17.54,70.06-1.29,114.59l-16.86,5.25C673.27,465.38,684.13,407.81,686.51,353.77z"/><path fill="#f9aeac" d="M683.11,442.38l-15.07,0.83c0,0-19.55,13.22-5.35,7.96c0,0-24,16.75,1.75,6.21c0,0-0.06,15.95,15.05,4.49
					l13.76-7.73L683.11,442.38z"/><path fill="#cc4040" d="M709.21,372.36c7.71-6.75,24.15,53.4,19.1,70.19l-39.07,17.58l-8.04-20.27l26.78-11.57l-9.9-22.88
					c-1.52-3.51-1.42-7.51,0.27-10.95L709.21,372.36z"/><path fill="#e13268" d="M656.62,353.65c0,0-20.03,10.67-30.47,12.23c-2.16,0.32-3.65,2.33-3.41,4.5
					c4.23,38.77,4.33,78.49-5.42,120.49c0,0,26.51,20.49,24.96-38.02C646.02,408.12,650.52,372.08,656.62,353.65z"/><rect width="2" height="24.64" x="545.35" y="379.89" fill="#060351" transform="rotate(-52.084 546.381 392.23)"/><path fill="#e5959d" d="M555.6,397.61c0,0-10.97-0.71-6,3.15c0,0-0.55,4.84,3.08,4.48c0,0-1.65,5.13,2.11,3.89l5.82-2.2
					c1.3-0.49,1.68-2.14,0.74-3.15L555.6,397.61z"/><g><path fill="#e13268" d="M175.71,620.28c0,0,73.73-77.12,44.13-122.88l-37.81,25.66c0,0-5.74-55.59-35.45-71.58l-28.04,65.39
					l-35.62-25.94c0,0-26.1,77.3,47.18,117.28l25.73,17.96L175.71,620.28z"/><path fill="#dceff8" d="M151.77,612.25c-0.03-4.36,1.03-8.73,2.9-12.68c1.83-3.99,4.24-7.66,6.85-11.15
					c5.27-6.95,11.17-13.33,16.68-19.96c5.55-6.61,10.6-13.56,15.31-20.7c2.35-3.57,4.56-7.24,6.58-11.02
					c2-3.79,3.86-7.67,5.61-11.65l0.29,0.09c-1.91,8.51-5.42,16.67-9.94,24.18c-2.24,3.77-4.8,7.34-7.52,10.75
					c-2.75,3.4-5.61,6.69-8.51,9.92c-5.78,6.48-11.88,12.64-17.31,19.31c-2.73,3.32-5.26,6.81-7.22,10.62
					c-2.01,3.78-3.24,7.98-3.41,12.29L151.77,612.25z"/><path fill="#dceff8" d="M150.04,544.76c-0.21-4.97-0.18-9.95-0.18-14.92l0.24-14.91c0.11-4.97-0.04-9.94,0.39-14.88
					c0.4-4.95,0.91-9.87,1.77-14.83l0.3,0c0.41,2.49,0.63,4.98,0.76,7.48c0.14,2.49,0.17,4.98,0.17,7.47
					c0.01,4.98-0.62,9.92-0.99,14.87l-1.13,14.85c-0.4,4.95-0.75,9.9-1.02,14.86L150.04,544.76z"/><path fill="#dceff8" d="M143.86,612.31c-5.37-6.72-10.57-13.58-15.63-20.55c-5.02-7-9.88-14.11-14.53-21.38
					c-2.32-3.64-4.59-7.31-6.8-11.02c-2.16-3.75-4.22-7.56-6.02-11.51c-1.78-3.96-3.39-8.01-4.6-12.21
					c-1.2-4.17-2.06-8.57-1.72-12.92l0.3,0c0.3,2.13,0.65,4.21,1.32,6.24l0.45,1.52c0.16,0.5,0.36,1,0.53,1.5l0.53,1.5l0.59,1.48
					c1.59,3.94,3.38,7.8,5.31,11.59c3.89,7.57,7.8,15.19,12.16,22.58c4.36,7.38,8.96,14.63,13.72,21.78
					c4.72,7.18,9.58,14.26,14.63,21.22L143.86,612.31z"/><polygon fill="#362a37" points="174.48 680.8 126.85 680.62 111.26 605.14 190.65 605.45"/></g></svg>